<?xml version="1.0" encoding="UTF-8"?>
<svg xmlns="http://www.w3.org/2000/svg" xmlns:xlink="http://www.w3.org/1999/xlink" width="326.252pt" height="170.267pt" viewBox="0 0 326.252 170.267">
<defs>
<g>
<g id="glyph-0-0">
<path d="M 5.65625 -4.828125 L 4.53125 -7.4375 C 4.6875 -7.734375 5.046875 -7.78125 5.1875 -7.78125 C 5.265625 -7.78125 5.390625 -7.796875 5.390625 -8 C 5.390625 -8.125 5.28125 -8.125 5.21875 -8.125 C 5.015625 -8.125 4.78125 -8.109375 4.578125 -8.109375 L 3.875 -8.109375 C 3.15625 -8.109375 2.625 -8.125 2.625 -8.125 C 2.53125 -8.125 2.40625 -8.125 2.40625 -7.90625 C 2.40625 -7.78125 2.515625 -7.78125 2.671875 -7.78125 C 3.359375 -7.78125 3.40625 -7.671875 3.53125 -7.375 L 4.9375 -4.078125 L 2.359375 -1.3125 C 1.921875 -0.84375 1.421875 -0.390625 0.53125 -0.34375 C 0.390625 -0.328125 0.296875 -0.328125 0.296875 -0.125 C 0.296875 -0.078125 0.3125 0 0.4375 0 C 0.609375 0 0.78125 -0.03125 0.953125 -0.03125 L 1.515625 -0.03125 C 1.890625 -0.03125 2.3125 0 2.671875 0 C 2.765625 0 2.90625 0 2.90625 -0.21875 C 2.90625 -0.328125 2.828125 -0.34375 2.75 -0.34375 C 2.515625 -0.375 2.359375 -0.5 2.359375 -0.6875 C 2.359375 -0.890625 2.5 -1.03125 2.84375 -1.390625 L 3.90625 -2.546875 C 4.171875 -2.828125 4.796875 -3.515625 5.0625 -3.78125 L 6.3125 -0.84375 C 6.328125 -0.828125 6.375 -0.703125 6.375 -0.6875 C 6.375 -0.578125 6.109375 -0.375 5.734375 -0.34375 C 5.65625 -0.34375 5.53125 -0.328125 5.53125 -0.125 C 5.53125 0 5.640625 0 5.703125 0 C 5.90625 0 6.140625 -0.03125 6.34375 -0.03125 L 7.65625 -0.03125 C 7.875 -0.03125 8.09375 0 8.296875 0 C 8.375 0 8.515625 0 8.515625 -0.21875 C 8.515625 -0.34375 8.390625 -0.34375 8.28125 -0.34375 C 7.578125 -0.359375 7.546875 -0.421875 7.34375 -0.859375 L 5.78125 -4.546875 L 7.28125 -6.171875 C 7.40625 -6.28125 7.671875 -6.578125 7.78125 -6.703125 C 8.296875 -7.234375 8.78125 -7.734375 9.734375 -7.78125 C 9.859375 -7.796875 9.984375 -7.796875 9.984375 -8 C 9.984375 -8.125 9.875 -8.125 9.828125 -8.125 C 9.65625 -8.125 9.484375 -8.109375 9.3125 -8.109375 L 8.765625 -8.109375 C 8.375 -8.109375 7.96875 -8.125 7.59375 -8.125 C 7.515625 -8.125 7.375 -8.125 7.375 -7.921875 C 7.375 -7.796875 7.453125 -7.78125 7.53125 -7.78125 C 7.71875 -7.765625 7.921875 -7.671875 7.921875 -7.4375 L 7.90625 -7.421875 C 7.890625 -7.328125 7.875 -7.21875 7.734375 -7.078125 Z M 5.65625 -4.828125 "/>
</g>
<g id="glyph-0-1">
<path d="M 7 -6.8125 L 7.28125 -7.078125 C 7.796875 -7.625 8.234375 -7.75 8.65625 -7.78125 C 8.78125 -7.796875 8.890625 -7.8125 8.890625 -8.015625 C 8.890625 -8.125 8.78125 -8.125 8.75 -8.125 C 8.609375 -8.125 8.453125 -8.109375 8.3125 -8.109375 L 7.828125 -8.109375 C 7.484375 -8.109375 7.109375 -8.125 6.78125 -8.125 C 6.6875 -8.125 6.5625 -8.125 6.5625 -7.90625 C 6.5625 -7.796875 6.671875 -7.78125 6.71875 -7.78125 C 7.078125 -7.765625 7.078125 -7.578125 7.078125 -7.515625 C 7.078125 -7.375 6.984375 -7.203125 6.734375 -6.921875 L 3.90625 -3.671875 L 2.5625 -7.296875 C 2.484375 -7.46875 2.484375 -7.484375 2.484375 -7.515625 C 2.484375 -7.765625 2.96875 -7.78125 3.125 -7.78125 C 3.265625 -7.78125 3.390625 -7.78125 3.390625 -8 C 3.390625 -8.125 3.28125 -8.125 3.21875 -8.125 C 3.015625 -8.125 2.78125 -8.109375 2.578125 -8.109375 L 1.25 -8.109375 C 1.03125 -8.109375 0.8125 -8.125 0.609375 -8.125 C 0.53125 -8.125 0.390625 -8.125 0.390625 -7.90625 C 0.390625 -7.78125 0.5 -7.78125 0.671875 -7.78125 C 1.265625 -7.78125 1.375 -7.671875 1.46875 -7.40625 L 2.953125 -3.4375 C 2.96875 -3.40625 3 -3.28125 3 -3.234375 C 3 -3.203125 2.421875 -0.859375 2.375 -0.734375 C 2.28125 -0.421875 2.171875 -0.359375 1.40625 -0.34375 C 1.203125 -0.34375 1.109375 -0.34375 1.109375 -0.125 C 1.109375 0 1.234375 0 1.28125 0 C 1.484375 0 1.734375 -0.03125 1.96875 -0.03125 L 3.375 -0.03125 C 3.578125 -0.03125 3.828125 0 4.046875 0 C 4.125 0 4.28125 0 4.28125 -0.21875 C 4.28125 -0.34375 4.1875 -0.34375 3.984375 -0.34375 C 3.25 -0.34375 3.25 -0.421875 3.25 -0.5625 C 3.25 -0.640625 3.34375 -1.03125 3.40625 -1.265625 L 3.828125 -2.96875 C 3.90625 -3.234375 3.90625 -3.25 4.015625 -3.375 Z M 7 -6.8125 "/>
</g>
<g id="glyph-0-2">
<path d="M 5.640625 -4.859375 C 5.265625 -4.78125 5.125 -4.5 5.125 -4.28125 C 5.125 -3.984375 5.34375 -3.890625 5.515625 -3.890625 C 5.875 -3.890625 6.125 -4.203125 6.125 -4.53125 C 6.125 -5.03125 5.546875 -5.25 5.046875 -5.25 C 4.328125 -5.25 3.921875 -4.53125 3.8125 -4.3125 C 3.53125 -5.203125 2.796875 -5.25 2.578125 -5.25 C 1.375 -5.25 0.71875 -3.6875 0.71875 -3.421875 C 0.71875 -3.375 0.78125 -3.328125 0.859375 -3.328125 C 0.953125 -3.328125 0.96875 -3.390625 1 -3.4375 C 1.40625 -4.765625 2.203125 -5.015625 2.546875 -5.015625 C 3.078125 -5.015625 3.1875 -4.515625 3.1875 -4.234375 C 3.1875 -3.96875 3.125 -3.6875 2.96875 -3.125 L 2.578125 -1.484375 C 2.390625 -0.78125 2.046875 -0.125 1.421875 -0.125 C 1.359375 -0.125 1.0625 -0.125 0.8125 -0.28125 C 1.234375 -0.359375 1.328125 -0.71875 1.328125 -0.859375 C 1.328125 -1.09375 1.15625 -1.234375 0.921875 -1.234375 C 0.640625 -1.234375 0.328125 -0.984375 0.328125 -0.609375 C 0.328125 -0.109375 0.890625 0.125 1.40625 0.125 C 1.96875 0.125 2.375 -0.328125 2.625 -0.828125 C 2.828125 -0.125 3.421875 0.125 3.859375 0.125 C 5.078125 0.125 5.71875 -1.4375 5.71875 -1.703125 C 5.71875 -1.765625 5.671875 -1.8125 5.59375 -1.8125 C 5.484375 -1.8125 5.484375 -1.75 5.4375 -1.65625 C 5.125 -0.609375 4.421875 -0.125 3.890625 -0.125 C 3.484375 -0.125 3.25 -0.421875 3.25 -0.921875 C 3.25 -1.171875 3.296875 -1.375 3.484375 -2.15625 L 3.90625 -3.78125 C 4.078125 -4.484375 4.484375 -5.015625 5.03125 -5.015625 C 5.0625 -5.015625 5.390625 -5.015625 5.640625 -4.859375 Z M 5.640625 -4.859375 "/>
</g>
<g id="glyph-0-3">
<path d="M 3.125 1.328125 C 2.8125 1.78125 2.34375 2.1875 1.765625 2.1875 C 1.625 2.1875 1.046875 2.171875 0.875 1.625 C 0.90625 1.625 0.96875 1.625 0.984375 1.625 C 1.34375 1.625 1.578125 1.328125 1.578125 1.046875 C 1.578125 0.78125 1.359375 0.671875 1.171875 0.671875 C 0.984375 0.671875 0.578125 0.828125 0.578125 1.40625 C 0.578125 2.015625 1.078125 2.421875 1.765625 2.421875 C 2.953125 2.421875 4.15625 1.328125 4.484375 0.015625 L 5.65625 -4.625 C 5.671875 -4.6875 5.6875 -4.765625 5.6875 -4.828125 C 5.6875 -5.015625 5.546875 -5.125 5.375 -5.125 C 5.265625 -5.125 5.015625 -5.078125 4.921875 -4.734375 L 4.03125 -1.21875 C 3.984375 -1.015625 3.984375 -0.984375 3.875 -0.859375 C 3.640625 -0.53125 3.25 -0.125 2.671875 -0.125 C 2.015625 -0.125 1.953125 -0.78125 1.953125 -1.09375 C 1.953125 -1.78125 2.28125 -2.6875 2.59375 -3.546875 C 2.71875 -3.890625 2.796875 -4.0625 2.796875 -4.296875 C 2.796875 -4.796875 2.4375 -5.25 1.859375 -5.25 C 0.765625 -5.25 0.328125 -3.53125 0.328125 -3.421875 C 0.328125 -3.375 0.375 -3.328125 0.453125 -3.328125 C 0.5625 -3.328125 0.578125 -3.375 0.625 -3.53125 C 0.90625 -4.53125 1.359375 -5.015625 1.828125 -5.015625 C 1.921875 -5.015625 2.125 -5.015625 2.125 -4.625 C 2.125 -4.3125 2 -3.96875 1.828125 -3.515625 C 1.234375 -1.953125 1.234375 -1.5625 1.234375 -1.28125 C 1.234375 -0.140625 2.046875 0.125 2.640625 0.125 C 2.984375 0.125 3.421875 0.015625 3.828125 -0.421875 L 3.84375 -0.421875 C 3.671875 0.28125 3.546875 0.75 3.125 1.328125 Z M 3.125 1.328125 "/>
</g>
<g id="glyph-0-4">
<path d="M 2.328125 0.046875 C 2.328125 -0.640625 2.09375 -1.15625 1.609375 -1.15625 C 1.21875 -1.15625 1.03125 -0.84375 1.03125 -0.578125 C 1.03125 -0.328125 1.21875 0 1.625 0 C 1.78125 0 1.90625 -0.046875 2.015625 -0.15625 C 2.03125 -0.171875 2.046875 -0.171875 2.0625 -0.171875 C 2.078125 -0.171875 2.078125 -0.015625 2.078125 0.046875 C 2.078125 0.4375 2.015625 1.21875 1.328125 1.984375 C 1.1875 2.125 1.1875 2.15625 1.1875 2.171875 C 1.1875 2.234375 1.25 2.296875 1.3125 2.296875 C 1.40625 2.296875 2.328125 1.421875 2.328125 0.046875 Z M 2.328125 0.046875 "/>
</g>
<g id="glyph-0-5">
<path d="M 7.84375 -2.71875 C 8.078125 -2.828125 8.078125 -2.890625 8.078125 -2.96875 C 8.078125 -3.046875 8.0625 -3.125 7.84375 -3.234375 L 1.40625 -6.1875 C 1.25 -6.265625 1.21875 -6.28125 1.203125 -6.28125 C 1.0625 -6.28125 0.96875 -6.15625 0.96875 -6.0625 C 0.96875 -5.921875 1.078125 -5.875 1.21875 -5.796875 L 7.34375 -2.96875 L 1.21875 -0.140625 C 0.96875 -0.03125 0.96875 0.046875 0.96875 0.125 C 0.96875 0.21875 1.0625 0.328125 1.203125 0.328125 C 1.21875 0.328125 1.234375 0.328125 1.40625 0.25 Z M 7.84375 -2.71875 "/>
</g>
<g id="glyph-1-0">
<path d="M 8.03125 -3.859375 C 8.203125 -3.859375 8.421875 -3.859375 8.421875 -4.078125 C 8.421875 -4.296875 8.21875 -4.296875 8.03125 -4.296875 L 1.03125 -4.296875 C 0.859375 -4.296875 0.640625 -4.296875 0.640625 -4.078125 C 0.640625 -3.859375 0.84375 -3.859375 1.03125 -3.859375 Z M 8.03125 -1.640625 C 8.203125 -1.640625 8.421875 -1.640625 8.421875 -1.859375 C 8.421875 -2.078125 8.21875 -2.078125 8.03125 -2.078125 L 1.03125 -2.078125 C 0.859375 -2.078125 0.640625 -2.078125 0.640625 -1.875 C 0.640625 -1.640625 0.84375 -1.640625 1.03125 -1.640625 Z M 8.03125 -1.640625 "/>
</g>
<g id="glyph-1-1">
<path d="M 3.875 2.890625 C 3.875 2.859375 3.875 2.828125 3.671875 2.625 C 2.46875 1.421875 1.8125 -0.53125 1.8125 -2.96875 C 1.8125 -5.28125 2.375 -7.265625 3.75 -8.671875 C 3.875 -8.78125 3.875 -8.796875 3.875 -8.828125 C 3.875 -8.90625 3.8125 -8.921875 3.765625 -8.921875 C 3.609375 -8.921875 2.625 -8.078125 2.046875 -6.90625 C 1.4375 -5.703125 1.171875 -4.421875 1.171875 -2.96875 C 1.171875 -1.90625 1.328125 -0.484375 1.953125 0.78125 C 2.65625 2.21875 3.625 2.984375 3.765625 2.984375 C 3.8125 2.984375 3.875 2.96875 3.875 2.890625 Z M 3.875 2.890625 "/>
</g>
<g id="glyph-1-2">
<path d="M 3.359375 -2.96875 C 3.359375 -3.875 3.234375 -5.34375 2.578125 -6.734375 C 1.875 -8.15625 0.890625 -8.921875 0.765625 -8.921875 C 0.71875 -8.921875 0.65625 -8.90625 0.65625 -8.828125 C 0.65625 -8.796875 0.65625 -8.78125 0.859375 -8.578125 C 2.046875 -7.375 2.71875 -5.40625 2.71875 -2.96875 C 2.71875 -0.671875 2.15625 1.328125 0.78125 2.71875 C 0.65625 2.828125 0.65625 2.859375 0.65625 2.890625 C 0.65625 2.96875 0.71875 2.984375 0.765625 2.984375 C 0.921875 2.984375 1.890625 2.125 2.46875 0.96875 C 3.078125 -0.25 3.359375 -1.53125 3.359375 -2.96875 Z M 3.359375 -2.96875 "/>
</g>
<g id="glyph-2-0">
<path d="M 8.03125 -7.078125 C 8.171875 -7.140625 8.265625 -7.203125 8.265625 -7.328125 C 8.265625 -7.46875 8.15625 -7.578125 8.03125 -7.578125 C 7.96875 -7.578125 7.859375 -7.53125 7.8125 -7.5 L 1.21875 -4.390625 C 1.03125 -4.296875 0.984375 -4.21875 0.984375 -4.125 C 0.984375 -4.03125 1.03125 -3.9375 1.21875 -3.859375 L 7.8125 -0.765625 C 7.96875 -0.671875 7.984375 -0.671875 8.03125 -0.671875 C 8.15625 -0.671875 8.265625 -0.78125 8.265625 -0.921875 C 8.265625 -1.078125 8.15625 -1.125 8.03125 -1.171875 L 1.78125 -4.125 Z M 7.8125 1.546875 C 7.96875 1.625 7.984375 1.625 8.03125 1.625 C 8.15625 1.625 8.265625 1.53125 8.265625 1.390625 C 8.265625 1.234375 8.15625 1.1875 8.03125 1.125 L 1.453125 -1.96875 C 1.296875 -2.046875 1.28125 -2.046875 1.21875 -2.046875 C 1.078125 -2.046875 0.984375 -1.9375 0.984375 -1.8125 C 0.984375 -1.71875 1.03125 -1.625 1.21875 -1.546875 Z M 7.8125 1.546875 "/>
</g>
</g>
</defs>
<path fill-rule="nonzero" fill="rgb(61.175537%, 17.64679%, 17.64679%)" fill-opacity="0.15" d="M 40.265625 152.605469 L 40.265625 96.15625 L 153.164062 96.15625 L 153.164062 152.605469 Z M 40.265625 152.605469 "/>
<path fill="none" stroke-width="0.79701" stroke-linecap="butt" stroke-linejoin="miter" stroke="rgb(12.156677%, 10.978699%, 9.411621%)" stroke-opacity="1" stroke-miterlimit="10" d="M 141.733176 28.348564 L 141.733176 153.070692 " transform="matrix(0.995713, 0, 0, -0.995713, 12.038432, 180.832515)"/>
<path fill="none" stroke-width="0.79701" stroke-linecap="butt" stroke-linejoin="miter" stroke="rgb(12.156677%, 10.978699%, 9.411621%)" stroke-opacity="1" stroke-miterlimit="10" d="M 28.348711 85.040797 L 286.302097 85.040797 " transform="matrix(0.995713, 0, 0, -0.995713, 12.038432, 180.832515)"/>
<path fill="none" stroke-width="0.79701" stroke-linecap="butt" stroke-linejoin="miter" stroke="rgb(12.156677%, 10.978699%, 9.411621%)" stroke-opacity="1" stroke-miterlimit="10" d="M 28.348711 28.348564 L 292.218081 28.348564 " transform="matrix(0.995713, 0, 0, -0.995713, 12.038432, 180.832515)"/>
<path fill-rule="nonzero" fill="rgb(12.156677%, 10.978699%, 9.411621%)" fill-opacity="1" d="M 305.582031 152.605469 L 301.453125 150.542969 L 303.003906 152.605469 L 301.453125 154.671875 "/>
<g fill="rgb(12.156677%, 10.978699%, 9.411621%)" fill-opacity="1">
<use xlink:href="#glyph-0-0" x="309.280803" y="156.674516"/>
</g>
<path fill="none" stroke-width="0.79701" stroke-linecap="butt" stroke-linejoin="miter" stroke="rgb(12.156677%, 10.978699%, 9.411621%)" stroke-opacity="1" stroke-miterlimit="10" d="M 28.348711 28.348564 L 28.348711 161.823053 " transform="matrix(0.995713, 0, 0, -0.995713, 12.038432, 180.832515)"/>
<path fill-rule="nonzero" fill="rgb(12.156677%, 10.978699%, 9.411621%)" fill-opacity="1" d="M 40.265625 17.125 L 38.199219 21.253906 L 40.265625 19.703125 L 42.328125 21.253906 "/>
<g fill="rgb(12.156677%, 10.978699%, 9.411621%)" fill-opacity="1">
<use xlink:href="#glyph-0-1" x="35.587056" y="13.425204"/>
</g>
<g fill="rgb(12.156677%, 10.978699%, 9.411621%)" fill-opacity="1">
<use xlink:href="#glyph-0-0" x="136.707731" y="164.246916"/>
</g>
<g fill="rgb(12.156677%, 10.978699%, 9.411621%)" fill-opacity="1">
<use xlink:href="#glyph-1-0" x="150.623822" y="164.246916"/>
</g>
<g fill="rgb(12.156677%, 10.978699%, 9.411621%)" fill-opacity="1">
<use xlink:href="#glyph-0-2" x="162.995562" y="164.246916"/>
</g>
<g fill="rgb(12.156677%, 10.978699%, 9.411621%)" fill-opacity="1">
<use xlink:href="#glyph-0-1" x="5.617076" y="99.067514"/>
</g>
<g fill="rgb(12.156677%, 10.978699%, 9.411621%)" fill-opacity="1">
<use xlink:href="#glyph-1-0" x="18.276577" y="99.067514"/>
</g>
<g fill="rgb(12.156677%, 10.978699%, 9.411621%)" fill-opacity="1">
<use xlink:href="#glyph-0-3" x="30.648317" y="99.067514"/>
</g>
<g fill="rgb(12.156677%, 10.978699%, 9.411621%)" fill-opacity="1">
<use xlink:href="#glyph-0-0" x="59.940215" y="127.293003"/>
</g>
<g fill="rgb(12.156677%, 10.978699%, 9.411621%)" fill-opacity="1">
<use xlink:href="#glyph-2-0" x="73.856306" y="127.293003"/>
</g>
<g fill="rgb(12.156677%, 10.978699%, 9.411621%)" fill-opacity="1">
<use xlink:href="#glyph-0-2" x="86.421214" y="127.293003"/>
<use xlink:href="#glyph-0-4" x="93.044574" y="127.293003"/>
</g>
<g fill="rgb(12.156677%, 10.978699%, 9.411621%)" fill-opacity="1">
<use xlink:href="#glyph-0-1" x="102.151098" y="127.293003"/>
</g>
<g fill="rgb(12.156677%, 10.978699%, 9.411621%)" fill-opacity="1">
<use xlink:href="#glyph-2-0" x="114.810996" y="127.293003"/>
</g>
<g fill="rgb(12.156677%, 10.978699%, 9.411621%)" fill-opacity="1">
<use xlink:href="#glyph-0-3" x="127.3769" y="127.293003"/>
</g>
<g fill="rgb(12.156677%, 10.978699%, 9.411621%)" fill-opacity="1">
<use xlink:href="#glyph-0-0" x="187.049011" y="127.293003"/>
</g>
<g fill="rgb(12.156677%, 10.978699%, 9.411621%)" fill-opacity="1">
<use xlink:href="#glyph-0-5" x="200.959971" y="127.293003"/>
</g>
<g fill="rgb(12.156677%, 10.978699%, 9.411621%)" fill-opacity="1">
<use xlink:href="#glyph-0-2" x="213.335321" y="127.293003"/>
<use xlink:href="#glyph-0-4" x="219.958681" y="127.293003"/>
</g>
<g fill="rgb(12.156677%, 10.978699%, 9.411621%)" fill-opacity="1">
<use xlink:href="#glyph-0-1" x="229.065205" y="127.293003"/>
</g>
<g fill="rgb(12.156677%, 10.978699%, 9.411621%)" fill-opacity="1">
<use xlink:href="#glyph-2-0" x="241.72762" y="127.293003"/>
</g>
<g fill="rgb(12.156677%, 10.978699%, 9.411621%)" fill-opacity="1">
<use xlink:href="#glyph-0-3" x="254.292528" y="127.293003"/>
</g>
<g fill="rgb(12.156677%, 10.978699%, 9.411621%)" fill-opacity="1">
<use xlink:href="#glyph-0-0" x="60.036799" y="65.198321"/>
</g>
<g fill="rgb(12.156677%, 10.978699%, 9.411621%)" fill-opacity="1">
<use xlink:href="#glyph-2-0" x="73.952891" y="65.198321"/>
</g>
<g fill="rgb(12.156677%, 10.978699%, 9.411621%)" fill-opacity="1">
<use xlink:href="#glyph-0-2" x="86.517799" y="65.198321"/>
<use xlink:href="#glyph-0-4" x="93.141158" y="65.198321"/>
</g>
<g fill="rgb(12.156677%, 10.978699%, 9.411621%)" fill-opacity="1">
<use xlink:href="#glyph-0-1" x="102.247683" y="65.198321"/>
</g>
<g fill="rgb(12.156677%, 10.978699%, 9.411621%)" fill-opacity="1">
<use xlink:href="#glyph-0-5" x="114.902776" y="65.198321"/>
</g>
<g fill="rgb(12.156677%, 10.978699%, 9.411621%)" fill-opacity="1">
<use xlink:href="#glyph-0-3" x="127.278126" y="65.198321"/>
</g>
<g fill="rgb(12.156677%, 10.978699%, 9.411621%)" fill-opacity="1">
<use xlink:href="#glyph-0-0" x="187.145596" y="65.198321"/>
</g>
<g fill="rgb(12.156677%, 10.978699%, 9.411621%)" fill-opacity="1">
<use xlink:href="#glyph-0-5" x="201.056556" y="65.198321"/>
</g>
<g fill="rgb(12.156677%, 10.978699%, 9.411621%)" fill-opacity="1">
<use xlink:href="#glyph-0-2" x="213.431906" y="65.198321"/>
<use xlink:href="#glyph-0-4" x="220.055265" y="65.198321"/>
</g>
<g fill="rgb(12.156677%, 10.978699%, 9.411621%)" fill-opacity="1">
<use xlink:href="#glyph-0-1" x="229.16179" y="65.198321"/>
</g>
<g fill="rgb(12.156677%, 10.978699%, 9.411621%)" fill-opacity="1">
<use xlink:href="#glyph-0-5" x="241.828786" y="65.198321"/>
</g>
<g fill="rgb(12.156677%, 10.978699%, 9.411621%)" fill-opacity="1">
<use xlink:href="#glyph-0-3" x="254.192233" y="65.198321"/>
</g>
<path fill-rule="nonzero" fill="rgb(12.156677%, 10.978699%, 9.411621%)" fill-opacity="1" d="M 155.347656 96.15625 C 155.347656 94.953125 154.371094 93.972656 153.164062 93.972656 C 151.960938 93.972656 150.984375 94.953125 150.984375 96.15625 C 150.984375 97.363281 151.960938 98.339844 153.164062 98.339844 C 154.371094 98.339844 155.347656 97.363281 155.347656 96.15625 Z M 155.347656 96.15625 "/>
<g fill="rgb(12.156677%, 10.978699%, 9.411621%)" fill-opacity="1">
<use xlink:href="#glyph-1-1" x="157.660529" y="88.68521"/>
</g>
<g fill="rgb(12.156677%, 10.978699%, 9.411621%)" fill-opacity="1">
<use xlink:href="#glyph-0-2" x="162.193016" y="88.68521"/>
<use xlink:href="#glyph-0-4" x="168.816376" y="88.68521"/>
</g>
<g fill="rgb(12.156677%, 10.978699%, 9.411621%)" fill-opacity="1">
<use xlink:href="#glyph-0-3" x="176.018268" y="88.68521"/>
</g>
<g fill="rgb(12.156677%, 10.978699%, 9.411621%)" fill-opacity="1">
<use xlink:href="#glyph-1-2" x="182.132178" y="88.68521"/>
</g>
</svg>
