<?xml version="1.0" encoding="UTF-8"?>
<svg xmlns="http://www.w3.org/2000/svg" xmlns:xlink="http://www.w3.org/1999/xlink" width="229.871pt" height="144.317pt" viewBox="0 0 229.871 144.317">
<defs>
<g>
<g id="glyph-0-0">
<path d="M 3.640625 -3.96875 L 4.5 -3.96875 C 4.6875 -3.96875 4.796875 -3.96875 4.796875 -4.171875 C 4.796875 -4.28125 4.6875 -4.28125 4.53125 -4.28125 L 3.703125 -4.28125 L 3.90625 -5.40625 C 3.953125 -5.609375 4.09375 -6.3125 4.140625 -6.4375 C 4.234375 -6.625 4.40625 -6.78125 4.609375 -6.78125 C 4.65625 -6.78125 4.90625 -6.78125 5.09375 -6.59375 C 4.65625 -6.5625 4.5625 -6.21875 4.5625 -6.0625 C 4.5625 -5.828125 4.75 -5.71875 4.9375 -5.71875 C 5.1875 -5.71875 5.484375 -5.9375 5.484375 -6.3125 C 5.484375 -6.765625 5.015625 -7 4.609375 -7 C 4.28125 -7 3.65625 -6.8125 3.359375 -5.828125 C 3.296875 -5.625 3.265625 -5.53125 3.03125 -4.28125 L 2.34375 -4.28125 C 2.15625 -4.28125 2.046875 -4.28125 2.046875 -4.09375 C 2.046875 -3.96875 2.140625 -3.96875 2.328125 -3.96875 L 2.96875 -3.96875 L 2.234375 -0.046875 C 2.046875 0.90625 1.890625 1.8125 1.375 1.8125 C 1.328125 1.8125 1.078125 1.8125 0.890625 1.640625 C 1.34375 1.609375 1.4375 1.25 1.4375 1.09375 C 1.4375 0.875 1.265625 0.75 1.078125 0.75 C 0.8125 0.75 0.53125 0.96875 0.53125 1.34375 C 0.53125 1.796875 0.96875 2.03125 1.375 2.03125 C 1.921875 2.03125 2.3125 1.453125 2.484375 1.078125 C 2.8125 0.453125 3.03125 -0.75 3.046875 -0.828125 Z M 3.640625 -3.96875 "/>
</g>
<g id="glyph-0-1">
<path d="M 2.21875 -4.28125 C 2.21875 -4.28125 2.21875 -4.390625 2.09375 -4.390625 C 1.859375 -4.390625 1.140625 -4.3125 0.890625 -4.28125 C 0.796875 -4.28125 0.6875 -4.265625 0.6875 -4.09375 C 0.6875 -3.96875 0.78125 -3.96875 0.9375 -3.96875 C 1.40625 -3.96875 1.421875 -3.90625 1.421875 -3.796875 C 1.421875 -3.734375 1.3125 -3.265625 1.234375 -3 L 0.640625 -0.5625 C 0.59375 -0.421875 0.53125 -0.140625 0.53125 -0.125 C 0.53125 -0.015625 0.625 0 0.6875 0 L 0.828125 0 C 1.515625 -0.125 2.59375 -0.5 3.625 -1.453125 C 4.9375 -2.671875 5.203125 -4.03125 5.203125 -4.125 C 5.203125 -4.28125 5.078125 -4.390625 4.90625 -4.390625 C 4.828125 -4.390625 4.609375 -4.34375 4.53125 -4.0625 C 3.890625 -1.8125 2.375 -0.6875 1.25 -0.328125 Z M 2.21875 -4.28125 "/>
</g>
<g id="glyph-0-2">
<path d="M 2.015625 -0.015625 C 2.015625 -0.671875 1.765625 -1.046875 1.375 -1.046875 C 1.046875 -1.046875 0.859375 -0.796875 0.859375 -0.53125 C 0.859375 -0.265625 1.046875 0 1.375 0 C 1.5 0 1.625 -0.046875 1.71875 -0.125 C 1.75 -0.15625 1.765625 -0.15625 1.78125 -0.15625 C 1.78125 -0.15625 1.796875 -0.15625 1.796875 -0.015625 C 1.796875 0.71875 1.453125 1.3125 1.125 1.640625 C 1.015625 1.75 1.015625 1.78125 1.015625 1.8125 C 1.015625 1.875 1.0625 1.921875 1.109375 1.921875 C 1.21875 1.921875 2.015625 1.15625 2.015625 -0.015625 Z M 2.015625 -0.015625 "/>
</g>
<g id="glyph-1-0">
<path d="M 4.5625 -3.171875 C 4.5625 -3.96875 4.515625 -4.765625 4.171875 -5.5 C 3.703125 -6.453125 2.890625 -6.609375 2.484375 -6.609375 C 1.890625 -6.609375 1.15625 -6.34375 0.75 -5.421875 C 0.4375 -4.75 0.390625 -3.96875 0.390625 -3.171875 C 0.390625 -2.4375 0.421875 -1.53125 0.828125 -0.78125 C 1.265625 0.015625 1.984375 0.21875 2.46875 0.21875 C 3 0.21875 3.765625 0.015625 4.203125 -0.9375 C 4.515625 -1.625 4.5625 -2.390625 4.5625 -3.171875 Z M 2.46875 0 C 2.078125 0 1.5 -0.25 1.3125 -1.203125 C 1.203125 -1.796875 1.203125 -2.703125 1.203125 -3.296875 C 1.203125 -3.921875 1.203125 -4.578125 1.296875 -5.125 C 1.484375 -6.296875 2.21875 -6.390625 2.46875 -6.390625 C 2.796875 -6.390625 3.453125 -6.21875 3.640625 -5.234375 C 3.734375 -4.671875 3.734375 -3.921875 3.734375 -3.296875 C 3.734375 -2.546875 3.734375 -1.875 3.625 -1.234375 C 3.484375 -0.296875 2.921875 0 2.46875 0 Z M 2.46875 0 "/>
</g>
<g id="glyph-1-1">
<path d="M 2.921875 -6.34375 C 2.921875 -6.59375 2.921875 -6.609375 2.6875 -6.609375 C 2.078125 -5.96875 1.203125 -5.96875 0.890625 -5.96875 L 0.890625 -5.671875 C 1.078125 -5.671875 1.671875 -5.671875 2.1875 -5.921875 L 2.1875 -0.78125 C 2.1875 -0.421875 2.15625 -0.3125 1.265625 -0.3125 L 0.9375 -0.3125 L 0.9375 0 C 1.296875 -0.03125 2.15625 -0.03125 2.546875 -0.03125 C 2.953125 -0.03125 3.8125 -0.03125 4.15625 0 L 4.15625 -0.3125 L 3.84375 -0.3125 C 2.953125 -0.3125 2.921875 -0.421875 2.921875 -0.78125 Z M 2.921875 -6.34375 "/>
</g>
<g id="glyph-1-2">
<path d="M 1.265625 -0.765625 L 2.3125 -1.78125 C 3.859375 -3.15625 4.453125 -3.6875 4.453125 -4.6875 C 4.453125 -5.8125 3.5625 -6.609375 2.34375 -6.609375 C 1.234375 -6.609375 0.5 -5.6875 0.5 -4.8125 C 0.5 -4.25 0.984375 -4.25 1.015625 -4.25 C 1.1875 -4.25 1.53125 -4.375 1.53125 -4.78125 C 1.53125 -5.046875 1.359375 -5.296875 1.015625 -5.296875 C 0.9375 -5.296875 0.90625 -5.296875 0.890625 -5.28125 C 1.109375 -5.9375 1.640625 -6.296875 2.21875 -6.296875 C 3.125 -6.296875 3.546875 -5.5 3.546875 -4.6875 C 3.546875 -3.890625 3.0625 -3.109375 2.515625 -2.484375 L 0.609375 -0.359375 C 0.5 -0.265625 0.5 -0.234375 0.5 0 L 4.171875 0 L 4.453125 -1.71875 L 4.203125 -1.71875 C 4.15625 -1.421875 4.09375 -0.984375 3.984375 -0.84375 C 3.921875 -0.765625 3.265625 -0.765625 3.046875 -0.765625 Z M 1.265625 -0.765625 "/>
</g>
<g id="glyph-1-3">
<path d="M 2.875 -3.5 C 3.6875 -3.765625 4.265625 -4.453125 4.265625 -5.234375 C 4.265625 -6.046875 3.390625 -6.609375 2.4375 -6.609375 C 1.4375 -6.609375 0.6875 -6.015625 0.6875 -5.265625 C 0.6875 -4.9375 0.90625 -4.75 1.1875 -4.75 C 1.5 -4.75 1.703125 -4.953125 1.703125 -5.25 C 1.703125 -5.75 1.234375 -5.75 1.078125 -5.75 C 1.390625 -6.234375 2.046875 -6.359375 2.40625 -6.359375 C 2.8125 -6.359375 3.359375 -6.140625 3.359375 -5.25 C 3.359375 -5.125 3.328125 -4.546875 3.078125 -4.125 C 2.78125 -3.640625 2.4375 -3.609375 2.1875 -3.609375 C 2.109375 -3.59375 1.875 -3.578125 1.8125 -3.578125 C 1.71875 -3.5625 1.65625 -3.546875 1.65625 -3.453125 C 1.65625 -3.34375 1.71875 -3.34375 1.890625 -3.34375 L 2.328125 -3.34375 C 3.140625 -3.34375 3.515625 -2.671875 3.515625 -1.703125 C 3.515625 -0.34375 2.828125 -0.0625 2.390625 -0.0625 C 1.96875 -0.0625 1.21875 -0.234375 0.875 -0.8125 C 1.21875 -0.765625 1.53125 -0.984375 1.53125 -1.359375 C 1.53125 -1.71875 1.265625 -1.921875 0.96875 -1.921875 C 0.734375 -1.921875 0.421875 -1.78125 0.421875 -1.34375 C 0.421875 -0.4375 1.34375 0.21875 2.421875 0.21875 C 3.625 0.21875 4.53125 -0.6875 4.53125 -1.703125 C 4.53125 -2.515625 3.90625 -3.28125 2.875 -3.5 Z M 2.875 -3.5 "/>
</g>
<g id="glyph-1-4">
<path d="M 2.921875 -1.640625 L 2.921875 -0.78125 C 2.921875 -0.421875 2.890625 -0.3125 2.15625 -0.3125 L 1.953125 -0.3125 L 1.953125 0 C 2.359375 -0.03125 2.875 -0.03125 3.296875 -0.03125 C 3.703125 -0.03125 4.234375 -0.03125 4.640625 0 L 4.640625 -0.3125 L 4.4375 -0.3125 C 3.703125 -0.3125 3.6875 -0.421875 3.6875 -0.78125 L 3.6875 -1.640625 L 4.671875 -1.640625 L 4.671875 -1.9375 L 3.6875 -1.9375 L 3.6875 -6.453125 C 3.6875 -6.65625 3.6875 -6.71875 3.515625 -6.71875 C 3.4375 -6.71875 3.40625 -6.71875 3.328125 -6.59375 L 0.28125 -1.9375 L 0.28125 -1.640625 Z M 2.96875 -1.9375 L 0.5625 -1.9375 L 2.96875 -5.640625 Z M 2.96875 -1.9375 "/>
</g>
<g id="glyph-1-5">
<path d="M 3.28125 2.375 C 3.28125 2.34375 3.28125 2.328125 3.109375 2.15625 C 1.875 0.90625 1.5625 -0.96875 1.5625 -2.484375 C 1.5625 -4.203125 1.9375 -5.9375 3.15625 -7.171875 C 3.28125 -7.296875 3.28125 -7.3125 3.28125 -7.34375 C 3.28125 -7.40625 3.25 -7.4375 3.1875 -7.4375 C 3.078125 -7.4375 2.1875 -6.765625 1.609375 -5.5 C 1.09375 -4.421875 0.984375 -3.3125 0.984375 -2.484375 C 0.984375 -1.703125 1.09375 -0.5 1.640625 0.609375 C 2.234375 1.828125 3.078125 2.484375 3.1875 2.484375 C 3.25 2.484375 3.28125 2.453125 3.28125 2.375 Z M 3.28125 2.375 "/>
</g>
<g id="glyph-1-6">
<path d="M 6.8125 -3.25 C 6.96875 -3.25 7.15625 -3.25 7.15625 -3.4375 C 7.15625 -3.640625 6.96875 -3.640625 6.828125 -3.640625 L 0.890625 -3.640625 C 0.75 -3.640625 0.5625 -3.640625 0.5625 -3.4375 C 0.5625 -3.25 0.75 -3.25 0.890625 -3.25 Z M 6.828125 -1.3125 C 6.96875 -1.3125 7.15625 -1.3125 7.15625 -1.515625 C 7.15625 -1.71875 6.96875 -1.71875 6.8125 -1.71875 L 0.890625 -1.71875 C 0.75 -1.71875 0.5625 -1.71875 0.5625 -1.515625 C 0.5625 -1.3125 0.75 -1.3125 0.890625 -1.3125 Z M 6.828125 -1.3125 "/>
</g>
<g id="glyph-1-7">
<path d="M 2.875 -2.484375 C 2.875 -3.25 2.765625 -4.453125 2.21875 -5.578125 C 1.625 -6.796875 0.765625 -7.4375 0.671875 -7.4375 C 0.609375 -7.4375 0.5625 -7.40625 0.5625 -7.34375 C 0.5625 -7.3125 0.5625 -7.296875 0.75 -7.109375 C 1.71875 -6.125 2.296875 -4.546875 2.296875 -2.484375 C 2.296875 -0.78125 1.921875 0.96875 0.6875 2.21875 C 0.5625 2.328125 0.5625 2.34375 0.5625 2.375 C 0.5625 2.4375 0.609375 2.484375 0.671875 2.484375 C 0.765625 2.484375 1.65625 1.8125 2.25 0.546875 C 2.75 -0.546875 2.875 -1.640625 2.875 -2.484375 Z M 2.875 -2.484375 "/>
</g>
<g id="glyph-2-0">
<path d="M 8.234375 -6.40625 C 8.234375 -6.859375 7.46875 -6.78125 7.15625 -6.78125 L 3.421875 -6.78125 C 2.921875 -6.78125 2.046875 -6.5 1.890625 -5.96875 C 1.90625 -5.90625 1.921875 -5.890625 1.984375 -5.890625 C 2.203125 -5.890625 2.5 -6.078125 2.640625 -6.21875 C 2.953125 -6.21875 3.25 -6.234375 3.546875 -6.234375 L 4.171875 -6.234375 C 4.171875 -6.234375 4.125 -6.0625 4.125 -6.046875 C 3.734375 -4.234375 3.15625 -2.703125 2.71875 -1.71875 C 2.65625 -1.59375 2.125 -0.359375 1.984375 -0.234375 C 1.546875 -0.234375 1.21875 -0.46875 1.046875 -0.859375 C 1.015625 -0.921875 1.015625 -0.96875 0.9375 -0.96875 C 0.71875 -0.96875 0.171875 -0.640625 0.171875 -0.46875 C 0.171875 -0.453125 0.171875 -0.4375 0.1875 -0.421875 C 0.359375 0.046875 0.8125 0.3125 1.296875 0.3125 C 1.8125 0.3125 2.390625 -0.046875 2.703125 -0.421875 C 3.03125 -0.796875 3.6875 -2.421875 3.953125 -3.015625 L 5.859375 -3.015625 C 5.859375 -3 5.84375 -3 5.84375 -2.984375 C 5.84375 -2.953125 5.90625 -2.921875 5.9375 -2.921875 C 6.15625 -2.921875 6.734375 -3.1875 6.734375 -3.5 C 6.734375 -3.578125 6.65625 -3.5625 6.53125 -3.5625 L 4.15625 -3.5625 C 4.421875 -4.453125 4.75 -5.328125 4.9375 -6.234375 L 6.234375 -6.234375 C 6.484375 -6.234375 7.1875 -6.296875 7.359375 -6.078125 C 7.375 -6.015625 7.359375 -5.90625 7.375 -5.859375 C 7.40625 -5.84375 7.4375 -5.828125 7.46875 -5.828125 C 7.703125 -5.828125 8.234375 -6.125 8.234375 -6.40625 Z M 8.234375 -6.40625 "/>
</g>
<g id="glyph-3-0">
<path d="M 2.71875 -5.703125 C 2.71875 -5.921875 2.703125 -5.9375 2.484375 -5.9375 C 1.921875 -5.375 1.109375 -5.375 0.828125 -5.375 L 0.828125 -5.09375 C 1 -5.09375 1.546875 -5.09375 2.03125 -5.328125 L 2.03125 -0.71875 C 2.03125 -0.390625 2 -0.28125 1.171875 -0.28125 L 0.890625 -0.28125 L 0.890625 0 C 1.203125 -0.03125 2 -0.03125 2.359375 -0.03125 C 2.734375 -0.03125 3.53125 -0.03125 3.859375 0 L 3.859375 -0.28125 L 3.5625 -0.28125 C 2.734375 -0.28125 2.71875 -0.390625 2.71875 -0.71875 Z M 2.71875 -5.703125 "/>
</g>
<g id="glyph-3-1">
<path d="M 4.125 -1.578125 L 3.875 -1.578125 C 3.859375 -1.46875 3.78125 -0.9375 3.671875 -0.796875 C 3.609375 -0.71875 3 -0.71875 2.8125 -0.71875 L 1.234375 -0.71875 L 2.109375 -1.546875 C 3.578125 -2.8125 4.125 -3.296875 4.125 -4.203125 C 4.125 -5.234375 3.28125 -5.9375 2.171875 -5.9375 C 1.15625 -5.9375 0.453125 -5.125 0.453125 -4.3125 C 0.453125 -3.875 0.84375 -3.828125 0.921875 -3.828125 C 1.109375 -3.828125 1.390625 -3.96875 1.390625 -4.296875 C 1.390625 -4.5625 1.203125 -4.75 0.921875 -4.75 C 0.875 -4.75 0.84375 -4.75 0.8125 -4.75 C 1.03125 -5.375 1.59375 -5.671875 2.078125 -5.671875 C 2.984375 -5.671875 3.296875 -4.8125 3.296875 -4.203125 C 3.296875 -3.296875 2.609375 -2.546875 2.1875 -2.09375 L 0.546875 -0.328125 C 0.453125 -0.21875 0.453125 -0.203125 0.453125 0 L 3.875 0 Z M 4.125 -1.578125 "/>
</g>
</g>
<clipPath id="clip-0">
<path clip-rule="nonzero" d="M 3.308594 1.980469 L 215.613281 1.980469 L 215.613281 121.402344 L 3.308594 121.402344 Z M 3.308594 1.980469 "/>
</clipPath>
<clipPath id="clip-1">
<path clip-rule="nonzero" d="M 3.308594 84 L 215.613281 84 L 215.613281 121.402344 L 3.308594 121.402344 Z M 3.308594 84 "/>
</clipPath>
<clipPath id="clip-2">
<path clip-rule="nonzero" d="M 3.308594 1.980469 L 215.613281 1.980469 L 215.613281 121.402344 L 3.308594 121.402344 Z M 3.308594 1.980469 "/>
</clipPath>
</defs>
<g clip-path="url(#clip-0)">
<path fill="none" stroke-width="0.79701" stroke-linecap="butt" stroke-linejoin="miter" stroke="rgb(12.156677%, 10.978699%, 9.411621%)" stroke-opacity="1" stroke-miterlimit="10" d="M 0.841565 130.894002 L 0.896512 126.761254 L 0.951458 122.973883 L 1.006404 119.496566 L 1.06135 116.290056 L 1.116297 113.311181 L 1.167318 110.540317 L 1.273286 105.532353 L 1.383179 101.109174 L 1.493072 97.176588 L 1.602964 93.6404 L 1.705007 90.437815 L 1.8149 87.51781 L 1.924793 84.852914 L 2.144578 80.115757 L 2.356514 76.03403 L 2.576299 72.470369 L 2.788235 69.318805 L 3.004095 66.504769 L 3.219956 63.969389 L 3.439741 61.673418 L 3.867537 57.658412 L 4.299258 54.243891 L 4.730979 51.300339 L 5.17055 48.717862 L 5.602271 46.433665 L 6.033992 44.388877 L 6.897434 40.876237 L 7.756952 37.952308 L 8.628243 35.46795 L 9.491685 33.317194 L 10.351203 31.437245 L 11.222494 29.773157 L 12.949378 26.947346 L 14.680187 24.631752 L 16.407072 22.681157 L 18.137881 21.024918 L 21.595574 18.332549 L 25.053267 16.232815 L 28.51096 14.541253 L 31.972578 13.147971 L 35.430271 11.982325 L 38.887964 10.989366 L 42.345658 10.137698 L 45.803351 9.391998 L 49.261044 8.740492 L 52.722662 8.163556 L 56.180355 7.65334 L 59.638048 7.190221 L 63.095741 6.774199 L 66.553435 6.401349 L 70.011128 6.059897 L 73.472746 5.749843 L 76.930439 5.463337 L 80.388132 5.204304 L 83.845825 4.964895 L 87.303518 4.741185 L 90.761211 4.537099 L 94.222829 4.344787 L 97.680523 4.168174 L 101.138216 4.003335 L 104.595909 3.846345 L 108.053602 3.705055 L 111.511295 3.567689 L 114.972913 3.434248 L 118.430606 3.316506 L 121.8883 3.202688 L 125.345993 3.09672 L 128.803686 2.994677 L 132.261379 2.900484 L 135.722997 2.810215 L 139.18069 2.719946 L 146.096077 2.562956 L 153.011463 2.421666 L 156.473081 2.35102 L 159.930774 2.292149 L 163.388467 2.225429 L 166.84616 2.170482 L 170.307778 2.115536 L 173.765471 2.06059 L 177.227089 2.005644 L 180.684783 1.958547 L 184.142476 1.915375 L 187.596244 1.864353 L 191.053937 1.821181 L 194.51163 1.781934 L 197.977173 1.738761 L 201.434866 1.703439 L 204.892559 1.664191 L 208.350253 1.632794 " transform="matrix(0.99529, 0, 0, -0.99529, 8.24443, 121.402446)"/>
<path fill="none" stroke-width="0.79701" stroke-linecap="butt" stroke-linejoin="miter" stroke="rgb(12.156677%, 10.978699%, 9.411621%)" stroke-opacity="1" stroke-dasharray="0.99628 1.99255" stroke-miterlimit="10" d="M 1.328233 130.894002 L 1.4342 125.744747 L 1.544093 121.137106 L 1.650061 116.988659 L 1.759954 113.216987 L 1.865922 109.782843 L 1.975814 106.623429 L 2.085707 103.711275 L 2.18775 101.018905 L 2.40361 96.17578 L 2.619471 91.929215 L 2.839256 88.173241 L 3.051192 84.813667 L 3.270977 81.787695 L 3.482913 79.044303 L 3.698774 76.540321 L 3.914634 74.240426 L 4.346355 70.146925 L 4.778076 66.614662 L 5.209797 63.518044 L 5.641518 60.774653 L 6.073239 58.317768 L 6.50496 56.104216 L 7.368403 52.257974 L 8.22792 49.012217 L 9.091362 46.221729 L 9.950879 43.788392 L 10.814322 41.641561 L 11.677764 39.722365 L 13.404648 36.433435 L 15.131532 33.701818 L 16.854492 31.370525 L 18.577451 29.364984 L 20.304335 27.602777 L 22.03122 26.036807 L 25.477138 23.379761 L 28.930907 21.189757 L 32.376826 19.341206 L 35.830594 17.759537 L 39.284363 16.37803 L 42.730282 15.161362 L 46.18405 14.085984 L 49.629969 13.120498 L 53.083738 12.253131 L 56.533581 11.468184 L 59.983425 10.753882 L 63.433269 10.1063 L 66.883112 9.505816 L 70.332956 8.948503 L 73.786725 8.442212 L 77.232644 7.975168 L 80.686412 7.531673 L 84.14018 7.127425 L 87.586099 6.746726 L 91.039868 6.397424 L 94.485787 6.063821 L 97.939555 5.753767 L 101.385474 5.463337 L 104.839243 5.19253 L 108.289086 4.937422 L 111.73893 4.698013 L 115.188774 4.466454 L 118.638617 4.254518 L 122.092386 4.050431 L 125.54223 3.862044 L 128.992073 3.681506 L 132.441917 3.512742 L 135.891761 3.347904 L 139.341604 3.194839 L 146.241292 2.912258 L 149.69506 2.782741 L 153.140979 2.661075 L 156.594748 2.543332 L 160.040667 2.43344 L 163.494435 2.323547 L 166.948203 2.225429 L 170.394122 2.12731 L 173.847891 2.033117 L 177.29381 1.946772 L 180.747578 1.864353 L 184.197422 1.789783 L 187.647266 1.711288 L 194.546953 1.569998 L 197.996797 1.507202 L 201.450565 1.444406 L 204.896484 1.385535 L 208.350253 1.326664 " transform="matrix(0.99529, 0, 0, -0.99529, 8.24443, 121.402446)"/>
</g>
<g clip-path="url(#clip-1)">
<path fill="none" stroke-width="0.79701" stroke-linecap="butt" stroke-linejoin="miter" stroke="rgb(12.156677%, 10.978699%, 9.411621%)" stroke-opacity="1" stroke-dasharray="3.9851 1.99255" stroke-miterlimit="10" d="M 0.197908 0.000103004 L 1.936567 0.0275762 L 2.803934 0.431824 L 3.235655 0.965588 L 3.667376 1.781934 L 4.103022 2.857311 L 4.534743 4.14855 L 5.402109 7.150974 L 7.136843 13.355983 L 8.008135 16.0719 L 8.871577 18.39142 L 9.738944 20.298842 L 10.606311 21.825565 L 11.473677 23.01476 L 12.341044 23.905675 L 13.208411 24.541483 L 14.071853 24.973204 L 15.810512 25.346054 L 17.545245 25.240086 L 21.014713 24.231428 L 24.480255 22.732179 L 27.953647 21.107338 L 31.423115 19.517819 L 34.888657 18.038194 L 38.36205 16.684159 L 41.827592 15.455717 L 45.29706 14.348941 L 48.766527 13.355983 L 52.235994 12.461143 L 55.701537 11.656571 L 59.174929 10.930495 L 62.644397 10.271139 L 66.109939 9.670655 L 69.583331 9.125116 L 73.052799 8.626675 L 76.518341 8.17533 L 79.991734 7.755383 L 83.457276 7.374684 L 86.926744 7.017533 L 90.400136 6.691779 L 93.865678 6.393499 L 97.335146 6.106994 L 100.804613 5.847961 L 104.274081 5.604627 L 107.739623 5.376993 L 111.213015 5.165057 L 114.682483 4.964895 L 118.148025 4.776508 L 121.621417 4.603819 L 125.090885 4.43898 L 128.556427 4.281991 L 132.02982 4.132851 L 135.495362 3.99941 L 138.96483 3.865969 L 142.438222 3.740377 L 149.369307 3.512742 L 152.842699 3.406775 L 156.312167 3.304731 L 159.777709 3.210538 L 163.251101 3.120269 L 166.720569 3.033925 L 170.186111 2.951505 L 173.659504 2.869086 L 177.125046 2.790591 L 180.594514 2.719946 L 184.067906 2.6493 L 187.533448 2.586505 L 191.002916 2.519784 L 194.472383 2.460913 L 197.94185 2.398117 L 201.407393 2.343171 L 204.880785 2.292149 L 208.350253 2.237203 " transform="matrix(0.99529, 0, 0, -0.99529, 8.24443, 121.402446)"/>
</g>
<g clip-path="url(#clip-2)">
<path fill="none" stroke-width="0.99628" stroke-linecap="butt" stroke-linejoin="miter" stroke="rgb(12.156677%, 10.978699%, 9.411621%)" stroke-opacity="1" stroke-miterlimit="10" d="M 0.197908 0.000103004 L 17.545245 0.000103004 L 21.014713 0.0315009 L 22.749446 0.141394 L 24.480255 0.490695 L 26.218914 1.385535 L 27.086281 2.186181 L 27.953647 3.32828 L 28.821014 4.89425 L 29.684456 6.966511 L 30.551823 9.619633 L 31.423115 12.924261 L 32.290482 16.923568 L 33.157849 21.629328 L 34.025215 27.029766 L 34.888657 33.073861 L 35.756024 39.671343 L 36.623391 46.712321 L 38.36205 61.551751 L 39.229416 69.012676 L 40.092859 76.273439 L 40.960225 83.157428 L 41.827592 89.503727 L 42.694959 95.186746 L 43.12668 97.737825 L 43.566251 100.084818 L 43.997972 102.204176 L 44.433618 104.103748 L 44.865339 105.767837 L 45.29706 107.192516 L 45.732705 108.373862 L 46.164426 109.311874 L 46.600072 110.010477 L 47.031793 110.469672 L 47.463514 110.685532 L 47.89916 110.677683 L 48.330881 110.442198 L 48.766527 109.983004 L 49.202173 109.323648 L 49.637819 108.456282 L 50.501261 106.172085 L 51.368628 103.216758 L 52.235994 99.676645 L 53.103361 95.661639 L 53.970728 91.265934 L 54.84202 86.579798 L 55.701537 81.70135 L 59.174929 61.700891 L 60.905738 52.2462 L 61.77703 47.803398 L 62.644397 43.576456 L 63.511763 39.596773 L 64.37913 35.852574 L 65.246497 32.367408 L 66.109939 29.133425 L 66.981231 26.150625 L 67.848598 23.407234 L 68.715965 20.899327 L 69.583331 18.619055 L 70.450698 16.542869 L 71.31414 14.670769 L 73.052799 11.464259 L 74.787532 8.889632 L 76.518341 6.844844 L 78.253075 5.235702 L 79.991734 3.987636 L 81.722542 3.014301 L 83.457276 2.272526 L 86.926744 1.275642 L 90.400136 0.702631 L 93.865678 0.388652 L 97.335146 0.208114 L 100.804613 0.11392 L 104.274081 0.0589741 L 107.739623 0.0315009 L 111.213015 0.015802 L 114.682483 0.0118772 L 118.148025 0.00402774 L 121.621417 0.000103004 L 208.350253 0.000103004 " transform="matrix(0.99529, 0, 0, -0.99529, 8.24443, 121.402446)"/>
</g>
<path fill="none" stroke-width="0.79701" stroke-linecap="butt" stroke-linejoin="miter" stroke="rgb(12.156677%, 10.978699%, 9.411621%)" stroke-opacity="1" stroke-miterlimit="10" d="M -4.959196 0.000103004 L 205.936539 0.000103004 " transform="matrix(0.99529, 0, 0, -0.99529, 8.24443, 121.402446)"/>
<path fill-rule="nonzero" fill="rgb(12.156677%, 10.978699%, 9.411621%)" fill-opacity="1" stroke-width="0.67249" stroke-linecap="butt" stroke-linejoin="miter" stroke="rgb(12.156677%, 10.978699%, 9.411621%)" stroke-opacity="1" stroke-miterlimit="10" d="M 3.028797 0.000103004 L 1.086052 0.737954 L 1.741483 0.000103004 L 1.086052 -0.737748 Z M 3.028797 0.000103004 " transform="matrix(0.99529, 0, 0, -0.99529, 211.645626, 121.402446)"/>
<g fill="rgb(12.156677%, 10.978699%, 9.411621%)" fill-opacity="1">
<use xlink:href="#glyph-0-0" x="218.583969" y="123.881713"/>
</g>
<path fill="none" stroke-width="0.79701" stroke-linecap="butt" stroke-linejoin="miter" stroke="rgb(12.156677%, 10.978699%, 9.411621%)" stroke-opacity="1" stroke-miterlimit="10" d="M 0.0016715 0.993061 L 0.0016715 -3.006245 " transform="matrix(0.99529, 0, 0, -0.99529, 8.24443, 121.402446)"/>
<path fill="none" stroke-width="0.79701" stroke-linecap="butt" stroke-linejoin="miter" stroke="rgb(12.156677%, 10.978699%, 9.411621%)" stroke-opacity="1" stroke-miterlimit="10" d="M 49.606421 0.993061 L 49.606421 -3.006245 " transform="matrix(0.99529, 0, 0, -0.99529, 8.24443, 121.402446)"/>
<path fill="none" stroke-width="0.79701" stroke-linecap="butt" stroke-linejoin="miter" stroke="rgb(12.156677%, 10.978699%, 9.411621%)" stroke-opacity="1" stroke-miterlimit="10" d="M 99.215095 0.993061 L 99.215095 -3.006245 " transform="matrix(0.99529, 0, 0, -0.99529, 8.24443, 121.402446)"/>
<path fill="none" stroke-width="0.79701" stroke-linecap="butt" stroke-linejoin="miter" stroke="rgb(12.156677%, 10.978699%, 9.411621%)" stroke-opacity="1" stroke-miterlimit="10" d="M 148.819844 0.993061 L 148.819844 -3.006245 " transform="matrix(0.99529, 0, 0, -0.99529, 8.24443, 121.402446)"/>
<path fill="none" stroke-width="0.79701" stroke-linecap="butt" stroke-linejoin="miter" stroke="rgb(12.156677%, 10.978699%, 9.411621%)" stroke-opacity="1" stroke-miterlimit="10" d="M 198.428518 0.993061 L 198.428518 -3.006245 " transform="matrix(0.99529, 0, 0, -0.99529, 8.24443, 121.402446)"/>
<g fill="rgb(12.156677%, 10.978699%, 9.411621%)" fill-opacity="1">
<use xlink:href="#glyph-1-0" x="5.765164" y="138.349243"/>
</g>
<g fill="rgb(12.156677%, 10.978699%, 9.411621%)" fill-opacity="1">
<use xlink:href="#glyph-1-1" x="55.137502" y="138.349243"/>
</g>
<g fill="rgb(12.156677%, 10.978699%, 9.411621%)" fill-opacity="1">
<use xlink:href="#glyph-1-2" x="104.510836" y="138.349243"/>
</g>
<g fill="rgb(12.156677%, 10.978699%, 9.411621%)" fill-opacity="1">
<use xlink:href="#glyph-1-3" x="153.883175" y="138.349243"/>
</g>
<g fill="rgb(12.156677%, 10.978699%, 9.411621%)" fill-opacity="1">
<use xlink:href="#glyph-1-4" x="203.255513" y="138.349243"/>
</g>
<path fill="none" stroke-width="0.79701" stroke-linecap="butt" stroke-linejoin="miter" stroke="rgb(12.156677%, 10.978699%, 9.411621%)" stroke-opacity="1" stroke-miterlimit="10" d="M 101.695528 113.440697 L 115.883452 113.440697 " transform="matrix(0.99529, 0, 0, -0.99529, 8.24443, 121.402446)"/>
<g fill="rgb(12.156677%, 10.978699%, 9.411621%)" fill-opacity="1">
<use xlink:href="#glyph-2-0" x="127.92403" y="10.976054"/>
</g>
<g fill="rgb(12.156677%, 10.978699%, 9.411621%)" fill-opacity="1">
<use xlink:href="#glyph-1-5" x="136.035641" y="10.976054"/>
</g>
<g fill="rgb(12.156677%, 10.978699%, 9.411621%)" fill-opacity="1">
<use xlink:href="#glyph-0-1" x="139.891393" y="10.976054"/>
</g>
<g fill="rgb(12.156677%, 10.978699%, 9.411621%)" fill-opacity="1">
<use xlink:href="#glyph-3-0" x="144.790208" y="13.311999"/>
</g>
<g fill="rgb(12.156677%, 10.978699%, 9.411621%)" fill-opacity="1">
<use xlink:href="#glyph-1-6" x="152.626124" y="10.976054"/>
</g>
<g fill="rgb(12.156677%, 10.978699%, 9.411621%)" fill-opacity="1">
<use xlink:href="#glyph-1-1" x="163.095091" y="10.976054"/>
</g>
<g fill="rgb(12.156677%, 10.978699%, 9.411621%)" fill-opacity="1">
<use xlink:href="#glyph-0-2" x="168.050128" y="10.976054"/>
</g>
<g fill="rgb(12.156677%, 10.978699%, 9.411621%)" fill-opacity="1">
<use xlink:href="#glyph-0-1" x="172.460619" y="10.976054"/>
</g>
<g fill="rgb(12.156677%, 10.978699%, 9.411621%)" fill-opacity="1">
<use xlink:href="#glyph-3-1" x="177.356086" y="13.311999"/>
</g>
<g fill="rgb(12.156677%, 10.978699%, 9.411621%)" fill-opacity="1">
<use xlink:href="#glyph-1-6" x="185.192001" y="10.976054"/>
</g>
<g fill="rgb(12.156677%, 10.978699%, 9.411621%)" fill-opacity="1">
<use xlink:href="#glyph-1-1" x="195.660969" y="10.976054"/>
<use xlink:href="#glyph-1-7" x="200.618805" y="10.976054"/>
</g>
<path fill="none" stroke-width="0.79701" stroke-linecap="butt" stroke-linejoin="miter" stroke="rgb(12.156677%, 10.978699%, 9.411621%)" stroke-opacity="1" stroke-dasharray="0.99628 1.99255" stroke-miterlimit="10" d="M 101.695528 99.260623 L 115.883452 99.260623 " transform="matrix(0.99529, 0, 0, -0.99529, 8.24443, 121.402446)"/>
<g fill="rgb(12.156677%, 10.978699%, 9.411621%)" fill-opacity="1">
<use xlink:href="#glyph-2-0" x="127.92403" y="25.088266"/>
</g>
<g fill="rgb(12.156677%, 10.978699%, 9.411621%)" fill-opacity="1">
<use xlink:href="#glyph-1-5" x="136.035641" y="25.088266"/>
</g>
<g fill="rgb(12.156677%, 10.978699%, 9.411621%)" fill-opacity="1">
<use xlink:href="#glyph-0-1" x="139.891393" y="25.088266"/>
</g>
<g fill="rgb(12.156677%, 10.978699%, 9.411621%)" fill-opacity="1">
<use xlink:href="#glyph-3-0" x="144.790208" y="27.424211"/>
</g>
<g fill="rgb(12.156677%, 10.978699%, 9.411621%)" fill-opacity="1">
<use xlink:href="#glyph-1-6" x="152.626124" y="25.088266"/>
</g>
<g fill="rgb(12.156677%, 10.978699%, 9.411621%)" fill-opacity="1">
<use xlink:href="#glyph-1-1" x="163.095091" y="25.088266"/>
</g>
<g fill="rgb(12.156677%, 10.978699%, 9.411621%)" fill-opacity="1">
<use xlink:href="#glyph-0-2" x="168.050128" y="25.088266"/>
</g>
<g fill="rgb(12.156677%, 10.978699%, 9.411621%)" fill-opacity="1">
<use xlink:href="#glyph-0-1" x="172.460619" y="25.088266"/>
</g>
<g fill="rgb(12.156677%, 10.978699%, 9.411621%)" fill-opacity="1">
<use xlink:href="#glyph-3-1" x="177.356086" y="27.424211"/>
</g>
<g fill="rgb(12.156677%, 10.978699%, 9.411621%)" fill-opacity="1">
<use xlink:href="#glyph-1-6" x="185.192001" y="25.088266"/>
</g>
<g fill="rgb(12.156677%, 10.978699%, 9.411621%)" fill-opacity="1">
<use xlink:href="#glyph-1-1" x="195.660969" y="25.088266"/>
<use xlink:href="#glyph-1-0" x="200.618805" y="25.088266"/>
<use xlink:href="#glyph-1-0" x="205.576641" y="25.088266"/>
<use xlink:href="#glyph-1-7" x="210.534478" y="25.088266"/>
</g>
<path fill="none" stroke-width="0.79701" stroke-linecap="butt" stroke-linejoin="miter" stroke="rgb(12.156677%, 10.978699%, 9.411621%)" stroke-opacity="1" stroke-dasharray="3.9851 1.99255" stroke-miterlimit="10" d="M 101.695528 85.080549 L 115.883452 85.080549 " transform="matrix(0.99529, 0, 0, -0.99529, 8.24443, 121.402446)"/>
<g fill="rgb(12.156677%, 10.978699%, 9.411621%)" fill-opacity="1">
<use xlink:href="#glyph-2-0" x="127.92403" y="39.202469"/>
</g>
<g fill="rgb(12.156677%, 10.978699%, 9.411621%)" fill-opacity="1">
<use xlink:href="#glyph-1-5" x="136.035641" y="39.202469"/>
</g>
<g fill="rgb(12.156677%, 10.978699%, 9.411621%)" fill-opacity="1">
<use xlink:href="#glyph-0-1" x="139.891393" y="39.202469"/>
</g>
<g fill="rgb(12.156677%, 10.978699%, 9.411621%)" fill-opacity="1">
<use xlink:href="#glyph-3-0" x="144.790208" y="41.538414"/>
</g>
<g fill="rgb(12.156677%, 10.978699%, 9.411621%)" fill-opacity="1">
<use xlink:href="#glyph-1-6" x="152.626124" y="39.202469"/>
</g>
<g fill="rgb(12.156677%, 10.978699%, 9.411621%)" fill-opacity="1">
<use xlink:href="#glyph-1-1" x="163.095091" y="39.202469"/>
<use xlink:href="#glyph-1-0" x="168.052928" y="39.202469"/>
<use xlink:href="#glyph-1-0" x="173.010764" y="39.202469"/>
</g>
<g fill="rgb(12.156677%, 10.978699%, 9.411621%)" fill-opacity="1">
<use xlink:href="#glyph-0-2" x="177.966199" y="39.202469"/>
</g>
<g fill="rgb(12.156677%, 10.978699%, 9.411621%)" fill-opacity="1">
<use xlink:href="#glyph-0-1" x="182.37669" y="39.202469"/>
</g>
<g fill="rgb(12.156677%, 10.978699%, 9.411621%)" fill-opacity="1">
<use xlink:href="#glyph-3-1" x="187.271162" y="41.538414"/>
</g>
<g fill="rgb(12.156677%, 10.978699%, 9.411621%)" fill-opacity="1">
<use xlink:href="#glyph-1-6" x="195.107077" y="39.202469"/>
</g>
<g fill="rgb(12.156677%, 10.978699%, 9.411621%)" fill-opacity="1">
<use xlink:href="#glyph-1-1" x="205.576044" y="39.202469"/>
<use xlink:href="#glyph-1-7" x="210.533881" y="39.202469"/>
</g>
<path fill="none" stroke-width="0.99628" stroke-linecap="butt" stroke-linejoin="miter" stroke="rgb(12.156677%, 10.978699%, 9.411621%)" stroke-opacity="1" stroke-miterlimit="10" d="M 101.695528 70.900474 L 115.883452 70.900474 " transform="matrix(0.99529, 0, 0, -0.99529, 8.24443, 121.402446)"/>
<g fill="rgb(12.156677%, 10.978699%, 9.411621%)" fill-opacity="1">
<use xlink:href="#glyph-2-0" x="127.92403" y="53.315676"/>
</g>
<g fill="rgb(12.156677%, 10.978699%, 9.411621%)" fill-opacity="1">
<use xlink:href="#glyph-1-5" x="136.035641" y="53.315676"/>
</g>
<g fill="rgb(12.156677%, 10.978699%, 9.411621%)" fill-opacity="1">
<use xlink:href="#glyph-0-1" x="139.891393" y="53.315676"/>
</g>
<g fill="rgb(12.156677%, 10.978699%, 9.411621%)" fill-opacity="1">
<use xlink:href="#glyph-3-0" x="144.790208" y="55.650626"/>
</g>
<g fill="rgb(12.156677%, 10.978699%, 9.411621%)" fill-opacity="1">
<use xlink:href="#glyph-1-6" x="152.626124" y="53.315676"/>
</g>
<g fill="rgb(12.156677%, 10.978699%, 9.411621%)" fill-opacity="1">
<use xlink:href="#glyph-1-1" x="163.095091" y="53.315676"/>
<use xlink:href="#glyph-1-0" x="168.052928" y="53.315676"/>
<use xlink:href="#glyph-1-0" x="173.010764" y="53.315676"/>
</g>
<g fill="rgb(12.156677%, 10.978699%, 9.411621%)" fill-opacity="1">
<use xlink:href="#glyph-0-2" x="177.966199" y="53.315676"/>
</g>
<g fill="rgb(12.156677%, 10.978699%, 9.411621%)" fill-opacity="1">
<use xlink:href="#glyph-0-1" x="182.37669" y="53.315676"/>
</g>
<g fill="rgb(12.156677%, 10.978699%, 9.411621%)" fill-opacity="1">
<use xlink:href="#glyph-3-1" x="187.271162" y="55.650626"/>
</g>
<g fill="rgb(12.156677%, 10.978699%, 9.411621%)" fill-opacity="1">
<use xlink:href="#glyph-1-6" x="195.107077" y="53.315676"/>
</g>
<g fill="rgb(12.156677%, 10.978699%, 9.411621%)" fill-opacity="1">
<use xlink:href="#glyph-1-1" x="205.576044" y="53.315676"/>
<use xlink:href="#glyph-1-0" x="210.533881" y="53.315676"/>
<use xlink:href="#glyph-1-0" x="215.491717" y="53.315676"/>
<use xlink:href="#glyph-1-7" x="220.449553" y="53.315676"/>
</g>
</svg>
