<svg xmlns="http://www.w3.org/2000/svg" width="940" height="430" viewBox="0 0 940 430" role="img" aria-labelledby="title desc">
  <title id="title">Kurtosis and tail thickness</title>
  <desc id="desc">Textbook-style comparison of thick-tailed, mesokurtic, and thin-tailed distributions using alpha four, following the source manuscript curves.</desc>
  <defs>
    <marker id="axis-arrow" markerWidth="8" markerHeight="8" refX="7" refY="4" orient="auto">
      <path d="M 1 1 L 7 4 L 1 7 Z" fill="#1f1c18"/>
    </marker>
    <style>
      .frame { fill: none; stroke: #c9c1b4; stroke-width: 2; }
      .axis { stroke: #1f1c18; stroke-width: 1.8; marker-end: url(#axis-arrow); }
      .normal { fill: none; stroke: #1f1c18; stroke-width: 3; stroke-linecap: round; stroke-linejoin: round; }
      .thick { fill: none; stroke: #9c2d2d; stroke-width: 3.2; stroke-linecap: round; stroke-linejoin: round; }
      .thin { fill: none; stroke: #5f7561; stroke-width: 3; stroke-dasharray: 9 7; stroke-linecap: round; stroke-linejoin: round; }
      .guide { stroke: #7e7468; stroke-width: 1.6; stroke-dasharray: 7 6; }
      .label { font-family: "Noto Serif TC", "Songti TC", Georgia, serif; fill: #1f1c18; font-size: 19px; }
      .small { font-family: "Noto Serif TC", "Songti TC", Georgia, serif; fill: #5b5148; font-size: 16px; }
      .math { font-family: Georgia, "Times New Roman", serif; font-style: italic; fill: #1f1c18; font-size: 20px; }
      .sub { font-size: 13px; baseline-shift: sub; }
    </style>
  </defs>

  <rect class="frame" x="24" y="24" width="892" height="382" rx="12"/>

  <g transform="translate(58,42)">
    <line class="axis" x1="0" y1="303" x2="820" y2="303"/>
    <line class="guide" x1="395" y1="42" x2="395" y2="303"/>

    <path class="thin" d="M 140.0 303.0 L 145.3 297.7 L 150.6 292.4 L 155.9 287.1 L 161.2 281.9 L 166.6 276.6 L 171.9 271.4 L 177.2 266.2 L 182.5 261.1 L 187.8 256.0 L 193.1 250.9 L 198.4 245.9 L 203.8 241.0 L 209.1 236.1 L 214.4 231.3 L 219.7 226.6 L 225.0 222.0 L 230.3 217.5 L 235.6 213.0 L 240.9 208.6 L 246.2 204.4 L 251.6 200.2 L 256.9 196.2 L 262.2 192.3 L 267.5 188.4 L 272.8 184.8 L 278.1 181.2 L 283.4 177.8 L 288.8 174.5 L 294.1 171.3 L 299.4 168.3 L 304.7 165.4 L 310.0 162.7 L 315.3 160.1 L 320.6 157.7 L 325.9 155.4 L 331.2 153.3 L 336.6 151.4 L 341.9 149.6 L 347.2 148.0 L 352.5 146.5 L 357.8 145.2 L 363.1 144.1 L 368.4 143.2 L 373.8 142.4 L 379.1 141.8 L 384.4 141.3 L 389.7 141.1 L 395.0 141.0 L 400.3 141.1 L 405.6 141.3 L 410.9 141.8 L 416.2 142.4 L 421.6 143.2 L 426.9 144.1 L 432.2 145.2 L 437.5 146.5 L 442.8 148.0 L 448.1 149.6 L 453.4 151.4 L 458.8 153.3 L 464.1 155.4 L 469.4 157.7 L 474.7 160.1 L 480.0 162.7 L 485.3 165.4 L 490.6 168.3 L 495.9 171.3 L 501.2 174.5 L 506.6 177.8 L 511.9 181.2 L 517.2 184.8 L 522.5 188.4 L 527.8 192.3 L 533.1 196.2 L 538.4 200.2 L 543.8 204.4 L 549.1 208.6 L 554.4 213.0 L 559.7 217.5 L 565.0 222.0 L 570.3 226.6 L 575.6 231.3 L 580.9 236.1 L 586.2 241.0 L 591.6 245.9 L 596.9 250.9 L 602.2 256.0 L 607.5 261.1 L 612.8 266.2 L 618.1 271.4 L 623.4 276.6 L 628.8 281.9 L 634.1 287.1 L 639.4 292.4 L 644.7 297.7 L 650.0 303.0"/>
    <path class="normal" d="M 55.0 302.5 L 62.1 302.3 L 69.2 302.1 L 76.2 301.9 L 83.3 301.6 L 90.4 301.3 L 97.5 300.9 L 104.6 300.4 L 111.7 299.8 L 118.8 299.0 L 125.8 298.2 L 132.9 297.1 L 140.0 295.9 L 147.1 294.5 L 154.2 292.9 L 161.2 291.0 L 168.3 288.8 L 175.4 286.3 L 182.5 283.4 L 189.6 280.2 L 196.7 276.6 L 203.8 272.6 L 210.8 268.2 L 217.9 263.3 L 225.0 258.0 L 232.1 252.2 L 239.2 246.0 L 246.2 239.3 L 253.3 232.2 L 260.4 224.8 L 267.5 216.9 L 274.6 208.8 L 281.7 200.5 L 288.8 192.0 L 295.8 183.4 L 302.9 174.8 L 310.0 166.3 L 317.1 158.0 L 324.2 149.9 L 331.2 142.2 L 338.3 135.1 L 345.4 128.4 L 352.5 122.5 L 359.6 117.3 L 366.7 113.0 L 373.8 109.5 L 380.8 107.0 L 387.9 105.5 L 395.0 105.0 L 402.1 105.5 L 409.2 107.0 L 416.2 109.5 L 423.3 113.0 L 430.4 117.3 L 437.5 122.5 L 444.6 128.4 L 451.7 135.1 L 458.8 142.2 L 465.8 149.9 L 472.9 158.0 L 480.0 166.3 L 487.1 174.8 L 494.2 183.4 L 501.2 192.0 L 508.3 200.5 L 515.4 208.8 L 522.5 216.9 L 529.6 224.8 L 536.7 232.2 L 543.8 239.3 L 550.8 246.0 L 557.9 252.2 L 565.0 258.0 L 572.1 263.3 L 579.2 268.2 L 586.2 272.6 L 593.3 276.6 L 600.4 280.2 L 607.5 283.4 L 614.6 286.3 L 621.7 288.8 L 628.8 291.0 L 635.8 292.9 L 642.9 294.5 L 650.0 295.9 L 657.1 297.1 L 664.2 298.2 L 671.2 299.0 L 678.3 299.8 L 685.4 300.4 L 692.5 300.9 L 699.6 301.3 L 706.7 301.6 L 713.8 301.9 L 720.8 302.1 L 727.9 302.3 L 735.0 302.5"/>
    <path class="thick" d="M 55.0 300.0 L 60.3 299.8 L 65.6 299.5 L 70.9 299.1 L 76.2 298.8 L 81.6 298.4 L 86.9 298.0 L 92.2 297.5 L 97.5 297.0 L 102.8 296.4 L 108.1 295.8 L 113.4 295.2 L 118.8 294.5 L 124.1 293.7 L 129.4 292.9 L 134.7 291.9 L 140.0 290.9 L 145.3 289.9 L 150.6 288.7 L 155.9 287.4 L 161.2 286.0 L 166.6 284.5 L 171.9 282.9 L 177.2 281.1 L 182.5 279.2 L 187.8 277.1 L 193.1 274.9 L 198.4 272.4 L 203.8 269.8 L 209.1 267.0 L 214.4 264.0 L 219.7 260.7 L 225.0 257.2 L 230.3 253.5 L 235.6 249.5 L 240.9 245.2 L 246.2 240.7 L 251.6 235.9 L 256.9 230.8 L 262.2 225.4 L 267.5 219.7 L 272.8 213.7 L 278.1 207.5 L 283.4 201.0 L 288.8 194.3 L 294.1 187.3 L 299.4 180.1 L 304.7 172.8 L 310.0 165.4 L 315.3 157.9 L 320.6 150.5 L 325.9 143.0 L 331.2 135.7 L 336.6 128.6 L 341.9 121.7 L 347.2 115.2 L 352.5 109.1 L 357.8 103.5 L 363.1 98.5 L 368.4 94.1 L 373.8 90.4 L 379.1 87.5 L 384.4 85.3 L 389.7 84.0 L 395.0 83.6 L 400.3 84.0 L 405.6 85.3 L 410.9 87.5 L 416.2 90.4 L 421.6 94.1 L 426.9 98.5 L 432.2 103.5 L 437.5 109.1 L 442.8 115.2 L 448.1 121.7 L 453.4 128.6 L 458.8 135.7 L 464.1 143.0 L 469.4 150.5 L 474.7 157.9 L 480.0 165.4 L 485.3 172.8 L 490.6 180.1 L 495.9 187.3 L 501.2 194.3 L 506.6 201.0 L 511.9 207.5 L 517.2 213.7 L 522.5 219.7 L 527.8 225.4 L 533.1 230.8 L 538.4 235.9 L 543.8 240.7 L 549.1 245.2 L 554.4 249.5 L 559.7 253.5 L 565.0 257.2 L 570.3 260.7 L 575.6 264.0 L 580.9 267.0 L 586.2 269.8 L 591.6 272.4 L 596.9 274.9 L 602.2 277.1 L 607.5 279.2 L 612.8 281.1 L 618.1 282.9 L 623.4 284.5 L 628.8 286.0 L 634.1 287.4 L 639.4 288.7 L 644.7 289.9 L 650.0 290.9 L 655.3 291.9 L 660.6 292.9 L 665.9 293.7 L 671.2 294.5 L 676.6 295.2 L 681.9 295.8 L 687.2 296.4 L 692.5 297.0 L 697.8 297.5 L 703.1 298.0 L 708.4 298.4 L 713.8 298.8 L 719.1 299.1 L 724.4 299.5 L 729.7 299.8 L 735.0 300.0"/>

    <text class="math" x="842" y="309" text-anchor="start">x</text>
    <text class="label" x="395" y="335" text-anchor="middle">三個分配皆以同一位置為中心，比較重點在尾端厚薄</text>

    <g transform="translate(520,42)">
      <line class="thick" x1="0" y1="0" x2="48" y2="0"/>
      <text class="small" x="60" y="6">α<tspan class="sub">4</tspan> &gt; 3 厚尾</text>
      <line class="normal" x1="0" y1="34" x2="48" y2="34"/>
      <text class="small" x="60" y="40">α<tspan class="sub">4</tspan> = 3 常態峰</text>
      <line class="thin" x1="0" y1="68" x2="48" y2="68"/>
      <text class="small" x="60" y="74">α<tspan class="sub">4</tspan> &lt; 3 薄尾</text>
    </g>

    <text class="small" x="118" y="232" text-anchor="middle">左尾</text>
    <text class="small" x="672" y="232" text-anchor="middle">右尾</text>
    <text class="math" x="395" y="26" text-anchor="middle">μ<tspan class="sub">X</tspan></text>
  </g>
</svg>
