<svg xmlns="http://www.w3.org/2000/svg" width="940" height="430" viewBox="0 0 940 430" role="img" aria-labelledby="title desc">
  <title id="title">Kurtosis coefficients for three equal-location and equal-variance distributions</title>
  <desc id="desc">A Laplace distribution with kurtosis six, a standard normal distribution with kurtosis three, and a uniform distribution with kurtosis nine fifths. All three have mean zero and variance one.</desc>
  <defs>
    <marker id="axis-arrow" markerWidth="8" markerHeight="8" refX="7" refY="4" orient="auto">
      <path d="M 1 1 L 7 4 L 1 7 Z" fill="#1f1c18"/>
    </marker>
    <style>
      .frame { fill: none; stroke: #c9c1b4; stroke-width: 2; }
      .axis { stroke: #1f1c18; stroke-width: 1.8; marker-end: url(#axis-arrow); }
      .tick { stroke: #1f1c18; stroke-width: 1.4; }
      .guide { stroke: #7e7468; stroke-width: 1.4; stroke-dasharray: 7 6; }
      .normal { fill: none; stroke: #1f1c18; stroke-width: 3; stroke-linecap: round; stroke-linejoin: round; }
      .laplace { fill: none; stroke: #9c2d2d; stroke-width: 3.2; stroke-linecap: round; stroke-linejoin: round; }
      .uniform { fill: none; stroke: #5f7561; stroke-width: 3; stroke-dasharray: 9 7; stroke-linejoin: round; }
      .label { font-family: "Noto Serif TC", "Songti TC", Georgia, serif; fill: #1f1c18; font-size: 18px; }
      .small { font-family: "Noto Serif TC", "Songti TC", Georgia, serif; fill: #5b5148; font-size: 16px; }
      .math { font-family: Georgia, "Times New Roman", serif; font-style: italic; fill: #1f1c18; font-size: 19px; }
      .sub { font-size: 13px; baseline-shift: sub; }
    </style>
  </defs>

  <rect class="frame" x="24" y="24" width="892" height="382" rx="12"/>

  <line class="axis" x1="70" y1="330" x2="870" y2="330"/>
  <line class="axis" x1="70" y1="330" x2="70" y2="48"/>
  <line class="guide" x1="460" y1="58" x2="460" y2="330"/>

  <path class="normal" d="M 80.0 330.0 L 87.6 330.0 L 95.2 330.0 L 102.8 330.0 L 110.4 330.0 L 118.0 330.0 L 125.6 330.0 L 133.2 330.0 L 140.8 330.0 L 148.4 330.0 L 156.0 330.0 L 163.6 329.9 L 171.2 329.9 L 178.8 329.9 L 186.4 329.8 L 194.0 329.7 L 201.6 329.6 L 209.2 329.5 L 216.8 329.3 L 224.4 329.0 L 232.0 328.7 L 239.6 328.2 L 247.2 327.6 L 254.8 326.9 L 262.4 325.9 L 270.0 324.7 L 277.6 323.3 L 285.2 321.5 L 292.8 319.4 L 300.4 316.8 L 308.0 313.8 L 315.6 310.3 L 323.2 306.3 L 330.8 301.8 L 338.4 296.7 L 346.0 291.1 L 353.6 285.1 L 361.2 278.6 L 368.8 271.7 L 376.4 264.6 L 384.0 257.4 L 391.6 250.2 L 399.2 243.1 L 406.8 236.3 L 414.4 230.0 L 422.0 224.4 L 429.6 219.5 L 437.2 215.6 L 444.8 212.7 L 452.4 210.9 L 460.0 210.3 L 467.6 210.9 L 475.2 212.7 L 482.8 215.6 L 490.4 219.5 L 498.0 224.4 L 505.6 230.0 L 513.2 236.3 L 520.8 243.1 L 528.4 250.2 L 536.0 257.4 L 543.6 264.6 L 551.2 271.7 L 558.8 278.6 L 566.4 285.1 L 574.0 291.1 L 581.6 296.7 L 589.2 301.8 L 596.8 306.3 L 604.4 310.3 L 612.0 313.8 L 619.6 316.8 L 627.2 319.4 L 634.8 321.5 L 642.4 323.3 L 650.0 324.7 L 657.6 325.9 L 665.2 326.9 L 672.8 327.6 L 680.4 328.2 L 688.0 328.7 L 695.6 329.0 L 703.2 329.3 L 710.8 329.5 L 718.4 329.6 L 726.0 329.7 L 733.6 329.8 L 741.2 329.9 L 748.8 329.9 L 756.4 329.9 L 764.0 330.0 L 771.6 330.0 L 779.2 330.0 L 786.8 330.0 L 794.4 330.0 L 802.0 330.0 L 809.6 330.0 L 817.2 330.0 L 824.8 330.0 L 832.4 330.0 L 840.0 330.0"/>
  <path class="laplace" d="M 80.0 329.8 L 87.6 329.8 L 95.2 329.8 L 102.8 329.7 L 110.4 329.7 L 118.0 329.6 L 125.6 329.6 L 133.2 329.5 L 140.8 329.4 L 148.4 329.4 L 156.0 329.3 L 163.6 329.1 L 171.2 329.0 L 178.8 328.9 L 186.4 328.7 L 194.0 328.5 L 201.6 328.3 L 209.2 328.0 L 216.8 327.7 L 224.4 327.4 L 232.0 327.0 L 239.6 326.5 L 247.2 326.0 L 254.8 325.3 L 262.4 324.6 L 270.0 323.8 L 277.6 322.9 L 285.2 321.8 L 292.8 320.6 L 300.4 319.1 L 308.0 317.5 L 315.6 315.6 L 323.2 313.4 L 330.8 310.8 L 338.4 307.9 L 346.0 304.6 L 353.6 300.7 L 361.2 296.3 L 368.8 291.1 L 376.4 285.2 L 384.0 278.4 L 391.6 270.6 L 399.2 261.6 L 406.8 251.2 L 414.4 239.2 L 422.0 225.4 L 429.6 209.5 L 437.2 191.2 L 444.8 170.1 L 452.4 145.8 L 460.0 117.9 L 467.6 145.8 L 475.2 170.1 L 482.8 191.2 L 490.4 209.5 L 498.0 225.4 L 505.6 239.2 L 513.2 251.2 L 520.8 261.6 L 528.4 270.6 L 536.0 278.4 L 543.6 285.2 L 551.2 291.1 L 558.8 296.3 L 566.4 300.7 L 574.0 304.6 L 581.6 307.9 L 589.2 310.8 L 596.8 313.4 L 604.4 315.6 L 612.0 317.5 L 619.6 319.1 L 627.2 320.6 L 634.8 321.8 L 642.4 322.9 L 650.0 323.8 L 657.6 324.6 L 665.2 325.3 L 672.8 326.0 L 680.4 326.5 L 688.0 327.0 L 695.6 327.4 L 703.2 327.7 L 710.8 328.0 L 718.4 328.3 L 726.0 328.5 L 733.6 328.7 L 741.2 328.9 L 748.8 329.0 L 756.4 329.1 L 764.0 329.3 L 771.6 329.4 L 779.2 329.4 L 786.8 329.5 L 794.4 329.6 L 802.0 329.6 L 809.6 329.7 L 817.2 329.7 L 824.8 329.8 L 832.4 329.8 L 840.0 329.8"/>
  <path class="uniform" d="M 328.4 330.0 L 328.4 243.4 L 591.6 243.4 L 591.6 330.0"/>

  <line class="tick" x1="328.4" y1="325" x2="328.4" y2="335"/>
  <line class="tick" x1="460" y1="325" x2="460" y2="335"/>
  <line class="tick" x1="591.6" y1="325" x2="591.6" y2="335"/>
  <text class="math" x="328.4" y="354" text-anchor="middle">−√3</text>
  <text class="math" x="460" y="354" text-anchor="middle">0</text>
  <text class="math" x="591.6" y="354" text-anchor="middle">√3</text>
  <text class="math" x="886" y="336">x</text>
  <text class="math" x="54" y="54" text-anchor="end">f(x)</text>

  <g transform="translate(620,62)">
    <line class="laplace" x1="0" y1="0" x2="48" y2="0"/>
    <text class="small" x="60" y="6">拉普拉斯　α<tspan class="sub">4</tspan> = 6</text>
    <line class="normal" x1="0" y1="34" x2="48" y2="34"/>
    <text class="small" x="60" y="40">常態　α<tspan class="sub">4</tspan> = 3</text>
    <line class="uniform" x1="0" y1="68" x2="48" y2="68"/>
    <text class="small" x="60" y="74">均勻　α<tspan class="sub">4</tspan> = 9/5</text>
  </g>

  <text class="label" x="470" y="388" text-anchor="middle">三者的期望值皆為 0，變異數皆為 1</text>
</svg>
