<?xml version="1.0" encoding="UTF-8"?>
<svg xmlns="http://www.w3.org/2000/svg" xmlns:xlink="http://www.w3.org/1999/xlink" width="149.349pt" height="109.664pt" viewBox="0 0 149.349 109.664">
<defs>
<g>
<g id="glyph-0-0">
<path d="M 1.78125 -1.140625 C 1.375 -0.46875 0.984375 -0.34375 0.5625 -0.3125 C 0.4375 -0.296875 0.34375 -0.296875 0.34375 -0.109375 C 0.34375 -0.046875 0.390625 0 0.46875 0 C 0.75 0 1.046875 -0.03125 1.328125 -0.03125 C 1.65625 -0.03125 2 0 2.328125 0 C 2.375 0 2.515625 0 2.515625 -0.1875 C 2.515625 -0.296875 2.421875 -0.3125 2.34375 -0.3125 C 2.125 -0.328125 1.890625 -0.40625 1.890625 -0.65625 C 1.890625 -0.78125 1.9375 -0.890625 2.03125 -1.015625 L 2.78125 -2.296875 L 5.265625 -2.296875 C 5.28125 -2.078125 5.421875 -0.734375 5.421875 -0.640625 C 5.421875 -0.34375 4.90625 -0.3125 4.71875 -0.3125 C 4.578125 -0.3125 4.46875 -0.3125 4.46875 -0.109375 C 4.46875 0 4.59375 0 4.609375 0 C 5.015625 0 5.453125 -0.03125 5.859375 -0.03125 C 6.109375 -0.03125 6.734375 0 6.96875 0 C 7.03125 0 7.15625 0 7.15625 -0.203125 C 7.15625 -0.3125 7.046875 -0.3125 6.921875 -0.3125 C 6.3125 -0.3125 6.3125 -0.375 6.28125 -0.671875 L 5.671875 -6.859375 C 5.65625 -7.0625 5.65625 -7.109375 5.484375 -7.109375 C 5.328125 -7.109375 5.28125 -7.03125 5.234375 -6.9375 Z M 2.96875 -2.59375 L 4.921875 -5.875 L 5.234375 -2.59375 Z M 2.96875 -2.59375 "/>
</g>
<g id="glyph-0-1">
<path d="M 1.59375 -0.78125 C 1.484375 -0.390625 1.46875 -0.3125 0.6875 -0.3125 C 0.515625 -0.3125 0.421875 -0.3125 0.421875 -0.109375 C 0.421875 0 0.5 0 0.6875 0 L 4.234375 0 C 5.796875 0 6.96875 -1.171875 6.96875 -2.140625 C 6.96875 -2.859375 6.390625 -3.4375 5.421875 -3.546875 C 6.453125 -3.734375 7.5 -4.46875 7.5 -5.40625 C 7.5 -6.140625 6.84375 -6.78125 5.65625 -6.78125 L 2.328125 -6.78125 C 2.140625 -6.78125 2.03125 -6.78125 2.03125 -6.578125 C 2.03125 -6.46875 2.125 -6.46875 2.3125 -6.46875 C 2.328125 -6.46875 2.515625 -6.46875 2.6875 -6.453125 C 2.875 -6.421875 2.953125 -6.421875 2.953125 -6.296875 C 2.953125 -6.25 2.953125 -6.21875 2.921875 -6.109375 Z M 3.078125 -3.625 L 3.703125 -6.09375 C 3.796875 -6.4375 3.8125 -6.46875 4.234375 -6.46875 L 5.515625 -6.46875 C 6.390625 -6.46875 6.59375 -5.890625 6.59375 -5.453125 C 6.59375 -4.578125 5.75 -3.625 4.53125 -3.625 Z M 2.640625 -0.3125 C 2.5 -0.3125 2.484375 -0.3125 2.421875 -0.3125 C 2.328125 -0.328125 2.296875 -0.34375 2.296875 -0.421875 C 2.296875 -0.453125 2.296875 -0.46875 2.34375 -0.640625 L 3.03125 -3.40625 L 4.90625 -3.40625 C 5.859375 -3.40625 6.046875 -2.671875 6.046875 -2.25 C 6.046875 -1.265625 5.15625 -0.3125 3.984375 -0.3125 Z M 2.640625 -0.3125 "/>
</g>
<g id="glyph-0-2">
<path d="M 6.40625 -6.890625 C 6.40625 -6.921875 6.375 -7 6.296875 -7 C 6.234375 -7 6.234375 -6.984375 6.109375 -6.84375 L 5.640625 -6.28125 C 5.375 -6.75 4.859375 -7 4.21875 -7 C 2.953125 -7 1.765625 -5.859375 1.765625 -4.65625 C 1.765625 -3.84375 2.296875 -3.390625 2.796875 -3.25 L 3.859375 -2.96875 C 4.234375 -2.875 4.765625 -2.734375 4.765625 -1.921875 C 4.765625 -1.015625 3.953125 -0.09375 2.984375 -0.09375 C 2.34375 -0.09375 1.25 -0.3125 1.25 -1.53125 C 1.25 -1.78125 1.296875 -2.015625 1.3125 -2.078125 C 1.3125 -2.109375 1.328125 -2.125 1.328125 -2.140625 C 1.328125 -2.25 1.265625 -2.25 1.203125 -2.25 C 1.15625 -2.25 1.140625 -2.25 1.109375 -2.21875 C 1.078125 -2.171875 0.515625 0.09375 0.515625 0.125 C 0.515625 0.171875 0.5625 0.21875 0.625 0.21875 C 0.671875 0.21875 0.6875 0.203125 0.796875 0.0625 L 1.296875 -0.5 C 1.71875 0.078125 2.390625 0.21875 2.96875 0.21875 C 4.3125 0.21875 5.484375 -1.09375 5.484375 -2.328125 C 5.484375 -3.015625 5.15625 -3.359375 5 -3.5 C 4.765625 -3.71875 4.625 -3.765625 3.734375 -3.984375 C 3.515625 -4.046875 3.171875 -4.140625 3.078125 -4.171875 C 2.8125 -4.25 2.46875 -4.546875 2.46875 -5.0625 C 2.46875 -5.875 3.265625 -6.71875 4.203125 -6.71875 C 5.03125 -6.71875 5.640625 -6.296875 5.640625 -5.171875 C 5.640625 -4.859375 5.59375 -4.6875 5.59375 -4.625 C 5.59375 -4.609375 5.59375 -4.53125 5.71875 -4.53125 C 5.8125 -4.53125 5.828125 -4.546875 5.859375 -4.71875 Z M 6.40625 -6.890625 "/>
</g>
<g id="glyph-1-0">
<path d="M 6.53125 -2.28125 C 6.703125 -2.28125 6.890625 -2.28125 6.890625 -2.484375 C 6.890625 -2.671875 6.703125 -2.671875 6.53125 -2.671875 L 1.171875 -2.671875 C 1 -2.671875 0.828125 -2.671875 0.828125 -2.484375 C 0.828125 -2.28125 1 -2.28125 1.171875 -2.28125 Z M 6.53125 -2.28125 "/>
</g>
</g>
<clipPath id="clip-0">
<path clip-rule="nonzero" d="M 0 0.0703125 L 148.699219 0.0703125 L 148.699219 109.257812 L 0 109.257812 Z M 0 0.0703125 "/>
</clipPath>
<clipPath id="clip-1">
<path clip-rule="nonzero" d="M 19 0.0703125 L 130 0.0703125 L 130 109.257812 L 19 109.257812 Z M 19 0.0703125 "/>
</clipPath>
</defs>
<path fill-rule="evenodd" fill="rgb(61.175537%, 17.64679%, 17.64679%)" fill-opacity="0.12" d="M 118.097656 54.664062 C 118.097656 30.503906 98.511719 10.917969 74.351562 10.917969 C 50.191406 10.917969 30.605469 30.503906 30.605469 54.664062 C 30.605469 78.824219 50.191406 98.410156 74.351562 98.410156 C 98.511719 98.410156 118.097656 78.824219 118.097656 54.664062 Z M 81.125 54.664062 C 81.125 45 73.289062 37.167969 63.625 37.167969 C 53.960938 37.167969 46.128906 45 46.128906 54.664062 C 46.128906 64.328125 53.960938 72.164062 63.625 72.164062 C 73.289062 72.164062 81.125 64.328125 81.125 54.664062 Z M 81.125 54.664062 "/>
<g clip-path="url(#clip-0)">
<path fill="none" stroke-width="0.79701" stroke-linecap="butt" stroke-linejoin="miter" stroke="rgb(12.156677%, 10.978699%, 9.411621%)" stroke-opacity="1" stroke-miterlimit="10" d="M -72.285724 -50.44875 L -72.285724 50.450089 C -72.285724 51.548606 -71.391217 52.443113 -70.2927 52.443113 L 70.290086 52.443113 C 71.392527 52.443113 72.283111 51.548606 72.283111 50.450089 L 72.283111 -50.44875 C 72.283111 -51.551191 71.392527 -52.441774 70.290086 -52.441774 L -70.2927 -52.441774 C -71.391217 -52.441774 -72.285724 -51.551191 -72.285724 -50.44875 Z M -72.285724 -50.44875 " transform="matrix(0.99566, 0, 0, -0.99566, 74.35091, 54.664729)"/>
</g>
<g clip-path="url(#clip-1)">
<path fill="none" stroke-width="0.79701" stroke-linecap="butt" stroke-linejoin="miter" stroke="rgb(12.156677%, 10.978699%, 9.411621%)" stroke-opacity="1" stroke-miterlimit="10" d="M 43.937434 0.000669526 C 43.937434 24.266138 24.266123 43.937449 0.000654842 43.937449 C -24.264814 43.937449 -43.936125 24.266138 -43.936125 0.000669526 C -43.936125 -24.264799 -24.264814 -43.93611 0.000654842 -43.93611 C 24.266123 -43.93611 43.937434 -24.264799 43.937434 0.000669526 Z M 43.937434 0.000669526 " transform="matrix(0.99566, 0, 0, -0.99566, 74.35091, 54.664729)"/>
</g>
<path fill="none" stroke-width="0.79701" stroke-linecap="butt" stroke-linejoin="miter" stroke="rgb(12.156677%, 10.978699%, 9.411621%)" stroke-opacity="1" stroke-miterlimit="10" d="M 6.803617 0.000669526 C 6.803617 9.706857 -1.066477 17.573027 -10.772664 17.573027 C -20.478851 17.573027 -28.345022 9.706857 -28.345022 0.000669526 C -28.345022 -9.705518 -20.478851 -17.575612 -10.772664 -17.575612 C -1.066477 -17.575612 6.803617 -9.705518 6.803617 0.000669526 Z M 6.803617 0.000669526 " transform="matrix(0.99566, 0, 0, -0.99566, 74.35091, 54.664729)"/>
<g fill="rgb(12.156677%, 10.978699%, 9.411621%)" fill-opacity="1">
<use xlink:href="#glyph-0-0" x="59.905875" y="58.053956"/>
</g>
<g fill="rgb(61.175537%, 17.64679%, 17.64679%)" fill-opacity="1">
<use xlink:href="#glyph-0-1" x="86.52385" y="57.640757"/>
</g>
<g fill="rgb(61.175537%, 17.64679%, 17.64679%)" fill-opacity="1">
<use xlink:href="#glyph-1-0" x="96.749278" y="57.640757"/>
</g>
<g fill="rgb(61.175537%, 17.64679%, 17.64679%)" fill-opacity="1">
<use xlink:href="#glyph-0-0" x="106.669038" y="57.640757"/>
</g>
<g fill="rgb(12.156677%, 10.978699%, 9.411621%)" fill-opacity="1">
<use xlink:href="#glyph-0-1" x="21.794997" y="30.394521"/>
</g>
<g fill="rgb(54.116821%, 49.804688%, 44.706726%)" fill-opacity="1">
<use xlink:href="#glyph-0-2" x="130.293063" y="17.130338"/>
</g>
</svg>
