<svg xmlns="http://www.w3.org/2000/svg" width="940" height="920" viewBox="0 0 940 920" role="img" aria-labelledby="title desc">
  <title id="title">Symmetry and skewness</title>
  <desc id="desc">Textbook-style density sketches for right-skewed, left-skewed, and symmetric distributions.</desc>
  <defs>
    <marker id="axis-arrow" markerWidth="8" markerHeight="8" refX="7" refY="4" orient="auto">
      <path d="M 1 1 L 7 4 L 1 7 Z" fill="#1f1c18"/>
    </marker>
    <style>
      .frame { fill: none; stroke: #c9c1b4; stroke-width: 2; }
      .axis { stroke: #1f1c18; stroke-width: 1.7; marker-end: url(#axis-arrow); }
      .curve { fill: none; stroke: #1f1c18; stroke-width: 3; stroke-linecap: round; stroke-linejoin: round; }
      .guide { stroke: #7e7468; stroke-width: 1.8; stroke-dasharray: 7 6; }
      .label { font-family: "Noto Serif TC", "Songti TC", Georgia, serif; fill: #1f1c18; font-size: 20px; }
      .math { font-family: Georgia, "Times New Roman", serif; font-style: italic; fill: #1f1c18; font-size: 20px; }
      .sub { font-size: 13px; baseline-shift: sub; }
    </style>
  </defs>

  <rect class="frame" x="24" y="24" width="892" height="872" rx="18"/>

  <g transform="translate(58,54)">
    <path class="curve" d="M 74.3 204.8 L 79.7 200.9 L 85.1 196.3 L 90.5 191.1 L 95.9 185.2 L 101.2 178.9 L 106.6 172.1 L 112.0 165.0 L 117.4 157.6 L 122.8 150.0 L 128.2 142.2 L 133.5 134.5 L 138.9 126.7 L 144.3 119.1 L 149.7 111.6 L 155.1 104.3 L 160.5 97.2 L 165.8 90.4 L 171.2 84.0 L 176.6 77.9 L 182.0 72.2 L 187.4 66.8 L 192.8 61.9 L 198.1 57.4 L 203.5 53.3 L 208.9 49.7 L 214.3 46.4 L 219.7 43.6 L 225.1 41.3 L 230.4 39.3 L 235.8 37.7 L 241.2 36.5 L 246.6 35.7 L 252.0 35.3 L 257.4 35.2 L 262.7 35.4 L 268.1 35.9 L 273.5 36.8 L 278.9 37.9 L 284.3 39.2 L 289.7 40.9 L 295.0 42.7 L 300.4 44.7 L 305.8 47.0 L 311.2 49.4 L 316.6 51.9 L 322.0 54.6 L 327.3 57.4 L 332.7 60.4 L 338.1 63.4 L 343.5 66.5 L 348.9 69.7 L 354.3 73.0 L 359.6 76.3 L 365.0 79.6 L 370.4 83.0 L 375.8 86.3 L 381.2 89.7 L 386.6 93.1 L 391.9 96.5 L 397.3 99.8 L 402.7 103.2 L 408.1 106.5 L 413.5 109.8 L 418.9 113.0 L 424.2 116.2 L 429.6 119.4 L 435.0 122.5 L 440.4 125.5 L 445.8 128.5 L 451.2 131.5 L 456.5 134.4 L 461.9 137.2 L 467.3 139.9 L 472.7 142.6 L 478.1 145.2 L 483.5 147.8 L 488.8 150.3 L 494.2 152.7 L 499.6 155.0 L 505.0 157.3 L 510.4 159.6 L 515.8 161.7 L 521.1 163.8 L 526.5 165.8 L 531.9 167.8 L 537.3 169.6 L 542.7 171.5 L 548.1 173.2 L 553.4 174.9 L 558.8 176.6 L 564.2 178.2 L 569.6 179.7 L 575.0 181.2 L 580.4 182.6 L 585.7 184.0 L 591.1 185.3 L 596.5 186.5 L 601.9 187.8 L 607.3 188.9 L 612.7 190.0 L 618.0 191.1 L 623.4 192.2 L 628.8 193.1 L 634.2 194.1 L 639.6 195.0 L 645.0 195.9 L 650.3 196.7 L 655.7 197.5 L 661.1 198.3 L 666.5 199.0 L 671.9 199.7 L 677.3 200.4 L 682.6 201.0 L 688.0 201.6 L 693.4 202.2 L 698.8 202.8 L 704.2 203.3 L 709.6 203.8 L 714.9 204.3 L 720.3 204.8"/>
    <line class="axis" x1="0" y1="205" x2="790" y2="205"/>
    <line class="guide" x1="256.3" y1="35.2" x2="256.3" y2="205"/>
    <line class="guide" x1="364.5" y1="79.3" x2="364.5" y2="205"/>
    <line class="guide" x1="422.2" y1="115.0" x2="422.2" y2="205"/>
    <text class="math" x="256.3" y="234" text-anchor="middle">m<tspan class="sub">o</tspan></text>
    <text class="math" x="364.5" y="234" text-anchor="middle">η<tspan class="sub">X</tspan></text>
    <text class="math" x="422.2" y="234" text-anchor="middle">μ<tspan class="sub">X</tspan></text>
    <text class="math" x="815" y="211" text-anchor="start">x</text>
    <text class="label" x="390" y="269" text-anchor="middle">右偏分配（正偏分配）</text>
  </g>

  <g transform="translate(58,324)">
    <path class="curve" d="M 95.2 204.8 L 100.5 204.3 L 105.9 203.8 L 111.3 203.3 L 116.7 202.8 L 122.1 202.2 L 127.5 201.6 L 132.8 201.0 L 138.2 200.4 L 143.6 199.7 L 149.0 199.0 L 154.4 198.3 L 159.8 197.5 L 165.1 196.7 L 170.5 195.9 L 175.9 195.0 L 181.3 194.1 L 186.7 193.1 L 192.1 192.2 L 197.4 191.1 L 202.8 190.0 L 208.2 188.9 L 213.6 187.8 L 219.0 186.5 L 224.4 185.3 L 229.7 184.0 L 235.1 182.6 L 240.5 181.2 L 245.9 179.7 L 251.3 178.2 L 256.7 176.6 L 262.0 174.9 L 267.4 173.2 L 272.8 171.5 L 278.2 169.6 L 283.6 167.8 L 289.0 165.8 L 294.3 163.8 L 299.7 161.7 L 305.1 159.6 L 310.5 157.3 L 315.9 155.0 L 321.3 152.7 L 326.6 150.3 L 332.0 147.8 L 337.4 145.2 L 342.8 142.6 L 348.2 139.9 L 353.6 137.2 L 358.9 134.4 L 364.3 131.5 L 369.7 128.5 L 375.1 125.5 L 380.5 122.5 L 385.9 119.4 L 391.2 116.2 L 396.6 113.0 L 402.0 109.8 L 407.4 106.5 L 412.8 103.2 L 418.2 99.8 L 423.5 96.5 L 428.9 93.1 L 434.3 89.7 L 439.7 86.3 L 445.1 83.0 L 450.5 79.6 L 455.8 76.3 L 461.2 73.0 L 466.6 69.7 L 472.0 66.5 L 477.4 63.4 L 482.8 60.4 L 488.1 57.4 L 493.5 54.6 L 498.9 51.9 L 504.3 49.4 L 509.7 47.0 L 515.1 44.7 L 520.4 42.7 L 525.8 40.9 L 531.2 39.2 L 536.6 37.9 L 542.0 36.8 L 547.4 35.9 L 552.7 35.4 L 558.1 35.2 L 563.5 35.3 L 568.9 35.7 L 574.3 36.5 L 579.7 37.7 L 585.0 39.3 L 590.4 41.3 L 595.8 43.6 L 601.2 46.4 L 606.6 49.7 L 612.0 53.3 L 617.3 57.4 L 622.7 61.9 L 628.1 66.8 L 633.5 72.2 L 638.9 77.9 L 644.3 84.0 L 649.6 90.4 L 655.0 97.2 L 660.4 104.3 L 665.8 111.6 L 671.2 119.1 L 676.6 126.7 L 681.9 134.5 L 687.3 142.2 L 692.7 150.0 L 698.1 157.6 L 703.5 165.0 L 708.9 172.1 L 714.2 178.9 L 719.6 185.2 L 725.0 191.1 L 730.4 196.3 L 735.8 200.9 L 741.2 204.8"/>
    <line class="axis" x1="0" y1="205" x2="790" y2="205"/>
    <line class="guide" x1="393.3" y1="115.0" x2="393.3" y2="205"/>
    <line class="guide" x1="451.0" y1="79.3" x2="451.0" y2="205"/>
    <line class="guide" x1="559.2" y1="35.2" x2="559.2" y2="205"/>
    <text class="math" x="393.3" y="234" text-anchor="middle">μ<tspan class="sub">X</tspan></text>
    <text class="math" x="451.0" y="234" text-anchor="middle">η<tspan class="sub">X</tspan></text>
    <text class="math" x="559.2" y="234" text-anchor="middle">m<tspan class="sub">o</tspan></text>
    <text class="math" x="815" y="211" text-anchor="start">x</text>
    <text class="label" x="390" y="269" text-anchor="middle">左偏分配（負偏分配）</text>
  </g>

  <g transform="translate(58,594)">
    <path class="curve" d="M 40.0 203.1 L 46.1 202.8 L 52.3 202.4 L 58.4 202.0 L 64.5 201.5 L 70.6 201.0 L 76.8 200.5 L 82.9 199.8 L 89.0 199.1 L 95.2 198.3 L 101.3 197.4 L 107.4 196.3 L 113.5 195.2 L 119.7 194.0 L 125.8 192.6 L 131.9 191.2 L 138.1 189.5 L 144.2 187.8 L 150.3 185.8 L 156.5 183.7 L 162.6 181.5 L 168.7 179.0 L 174.8 176.4 L 181.0 173.6 L 187.1 170.6 L 193.2 167.4 L 199.4 164.0 L 205.5 160.4 L 211.6 156.6 L 217.7 152.7 L 223.9 148.5 L 230.0 144.2 L 236.1 139.7 L 242.3 135.0 L 248.4 130.3 L 254.5 125.3 L 260.6 120.3 L 266.8 115.2 L 272.9 110.0 L 279.0 104.7 L 285.2 99.5 L 291.3 94.2 L 297.4 88.9 L 303.5 83.8 L 309.7 78.7 L 315.8 73.7 L 321.9 68.8 L 328.1 64.1 L 334.2 59.7 L 340.3 55.4 L 346.5 51.4 L 352.6 47.8 L 358.7 44.4 L 364.8 41.3 L 371.0 38.7 L 377.1 36.4 L 383.2 34.4 L 389.4 32.9 L 395.5 31.9 L 401.6 31.2 L 407.7 31.0 L 413.9 31.2 L 420.0 31.9 L 426.1 32.9 L 432.3 34.4 L 438.4 36.4 L 444.5 38.7 L 450.6 41.3 L 456.8 44.4 L 462.9 47.8 L 469.0 51.4 L 475.2 55.4 L 481.3 59.7 L 487.4 64.1 L 493.5 68.8 L 499.7 73.7 L 505.8 78.7 L 511.9 83.8 L 518.1 88.9 L 524.2 94.2 L 530.3 99.5 L 536.5 104.7 L 542.6 110.0 L 548.7 115.2 L 554.8 120.3 L 561.0 125.3 L 567.1 130.3 L 573.2 135.0 L 579.4 139.7 L 585.5 144.2 L 591.6 148.5 L 597.7 152.7 L 603.9 156.6 L 610.0 160.4 L 616.1 164.0 L 622.3 167.4 L 628.4 170.6 L 634.5 173.6 L 640.6 176.4 L 646.8 179.0 L 652.9 181.5 L 659.0 183.7 L 665.2 185.8 L 671.3 187.8 L 677.4 189.5 L 683.5 191.2 L 689.7 192.6 L 695.8 194.0 L 701.9 195.2 L 708.1 196.3 L 714.2 197.4 L 720.3 198.3 L 726.5 199.1 L 732.6 199.8 L 738.7 200.5 L 744.8 201.0 L 751.0 201.5 L 757.1 202.0 L 763.2 202.4 L 769.4 202.8 L 775.5 203.1"/>
    <line class="axis" x1="0" y1="205" x2="790" y2="205"/>
    <line class="guide" x1="407.7" y1="31.0" x2="407.7" y2="205"/>
    <text class="math" x="407.7" y="234" text-anchor="middle">m<tspan class="sub">o</tspan> = η<tspan class="sub">X</tspan> = μ<tspan class="sub">X</tspan></text>
    <text class="math" x="815" y="211" text-anchor="start">x</text>
    <text class="label" x="390" y="269" text-anchor="middle">對稱分配</text>
  </g>
</svg>
