<?xml version="1.0" encoding="UTF-8"?>
<svg xmlns="http://www.w3.org/2000/svg" xmlns:xlink="http://www.w3.org/1999/xlink" width="170.937pt" height="150.381pt" viewBox="0 0 170.937 150.381">
<defs>
<g>
<g id="glyph-0-0">
<path d="M 5.828125 -6.046875 C 5.859375 -6.140625 5.859375 -6.171875 5.859375 -6.1875 C 5.859375 -6.203125 5.859375 -6.296875 5.75 -6.296875 C 5.703125 -6.296875 5.703125 -6.28125 5.59375 -6.15625 C 5.46875 -6.015625 5.578125 -6.140625 5.171875 -5.65625 C 4.828125 -6.15625 4.3125 -6.296875 3.84375 -6.296875 C 2.6875 -6.296875 1.609375 -5.265625 1.609375 -4.1875 C 1.609375 -3.828125 1.71875 -3.53125 1.953125 -3.28125 C 2.21875 -3 2.4375 -2.953125 3.078125 -2.78125 L 3.828125 -2.59375 C 4.109375 -2.5 4.40625 -2.21875 4.40625 -1.71875 C 4.40625 -0.921875 3.65625 -0.078125 2.75 -0.078125 C 2.234375 -0.078125 1.171875 -0.234375 1.171875 -1.390625 C 1.171875 -1.46875 1.171875 -1.59375 1.21875 -1.859375 C 1.234375 -1.90625 1.234375 -1.921875 1.234375 -1.921875 C 1.234375 -1.96875 1.21875 -2.03125 1.109375 -2.03125 C 1.015625 -2.03125 1 -1.984375 0.96875 -1.828125 L 0.484375 0.09375 C 0.484375 0.15625 0.53125 0.203125 0.59375 0.203125 C 0.640625 0.203125 0.65625 0.1875 0.765625 0.0625 C 0.828125 0 1.078125 -0.328125 1.1875 -0.4375 C 1.65625 0.15625 2.46875 0.203125 2.734375 0.203125 C 3.96875 0.203125 5.046875 -0.953125 5.046875 -2.078125 C 5.046875 -3.1875 4.171875 -3.40625 3.890625 -3.46875 L 3.078125 -3.6875 C 2.78125 -3.75 2.234375 -3.90625 2.234375 -4.578125 C 2.234375 -5.25 2.953125 -6.046875 3.84375 -6.046875 C 4.203125 -6.046875 4.546875 -5.9375 4.796875 -5.6875 C 5.140625 -5.359375 5.140625 -4.875 5.140625 -4.640625 C 5.140625 -4.359375 5.109375 -4.25 5.109375 -4.1875 C 5.109375 -4.109375 5.140625 -4.0625 5.234375 -4.0625 C 5.328125 -4.0625 5.328125 -4.09375 5.375 -4.25 Z M 5.828125 -6.046875 "/>
</g>
<g id="glyph-0-1">
<path d="M 8.453125 -5.40625 C 8.53125 -5.734375 8.5625 -5.8125 9.25 -5.8125 C 9.390625 -5.8125 9.5 -5.8125 9.5 -5.984375 C 9.5 -6.09375 9.40625 -6.09375 9.234375 -6.09375 L 8.0625 -6.09375 C 7.84375 -6.09375 7.8125 -6.09375 7.703125 -5.921875 L 4.40625 -0.84375 L 3.671875 -5.859375 C 3.625 -6.09375 3.625 -6.09375 3.375 -6.09375 L 2.15625 -6.09375 C 1.984375 -6.09375 1.875 -6.09375 1.875 -5.9375 C 1.875 -5.8125 1.96875 -5.8125 2.15625 -5.8125 C 2.1875 -5.8125 2.34375 -5.8125 2.484375 -5.796875 C 2.65625 -5.78125 2.703125 -5.75 2.703125 -5.671875 C 2.703125 -5.625 2.6875 -5.578125 2.671875 -5.484375 L 1.53125 -0.953125 C 1.421875 -0.484375 1.171875 -0.296875 0.578125 -0.28125 C 0.546875 -0.28125 0.421875 -0.265625 0.421875 -0.109375 C 0.421875 -0.09375 0.421875 0 0.546875 0 C 0.65625 0 0.890625 -0.015625 1 -0.015625 C 1.140625 -0.03125 1.15625 -0.03125 1.453125 -0.03125 C 1.671875 -0.03125 1.6875 -0.03125 1.90625 -0.015625 C 2.046875 -0.015625 2.234375 0 2.359375 0 C 2.40625 0 2.53125 0 2.53125 -0.15625 C 2.53125 -0.265625 2.421875 -0.28125 2.34375 -0.28125 C 1.921875 -0.28125 1.765625 -0.421875 1.765625 -0.65625 C 1.765625 -0.71875 1.78125 -0.734375 1.796875 -0.859375 L 3 -5.703125 L 3.015625 -5.703125 L 3.828125 -0.234375 C 3.84375 -0.09375 3.859375 0 3.984375 0 C 4.09375 0 4.140625 -0.09375 4.1875 -0.171875 L 7.828125 -5.765625 L 6.5625 -0.671875 C 6.484375 -0.359375 6.453125 -0.28125 5.796875 -0.28125 C 5.625 -0.28125 5.515625 -0.28125 5.515625 -0.109375 C 5.515625 -0.03125 5.578125 0 5.65625 0 C 5.765625 0 6.109375 -0.015625 6.21875 -0.015625 C 6.359375 -0.03125 6.578125 -0.03125 6.75 -0.03125 C 6.78125 -0.03125 7.140625 -0.015625 7.328125 -0.015625 C 7.5 -0.015625 7.703125 0 7.875 0 C 7.921875 0 8.03125 0 8.03125 -0.15625 C 8.03125 -0.28125 7.953125 -0.28125 7.765625 -0.28125 C 7.71875 -0.28125 7.5625 -0.28125 7.421875 -0.296875 C 7.234375 -0.328125 7.21875 -0.359375 7.21875 -0.4375 C 7.21875 -0.515625 7.234375 -0.59375 7.25 -0.65625 Z M 8.453125 -5.40625 "/>
</g>
<g id="glyph-0-2">
<path d="M 1.4375 -0.671875 C 1.359375 -0.359375 1.34375 -0.28125 0.671875 -0.28125 C 0.5 -0.28125 0.40625 -0.28125 0.40625 -0.109375 C 0.40625 0 0.484375 0 0.65625 0 L 3.65625 0 C 5.5625 0 7.34375 -1.890625 7.34375 -3.8125 C 7.34375 -5.046875 6.578125 -6.09375 5.1875 -6.09375 L 2.125 -6.09375 C 1.96875 -6.09375 1.859375 -6.09375 1.859375 -5.9375 C 1.859375 -5.8125 1.9375 -5.8125 2.125 -5.8125 C 2.15625 -5.8125 2.3125 -5.8125 2.46875 -5.796875 C 2.609375 -5.78125 2.671875 -5.765625 2.671875 -5.671875 C 2.671875 -5.625 2.671875 -5.578125 2.640625 -5.484375 Z M 3.40625 -5.46875 C 3.484375 -5.796875 3.5 -5.8125 3.875 -5.8125 L 4.875 -5.8125 C 5.8125 -5.8125 6.546875 -5.296875 6.546875 -4.15625 C 6.546875 -3.625 6.328125 -2.203125 5.625 -1.328125 C 5.21875 -0.8125 4.484375 -0.28125 3.5 -0.28125 L 2.421875 -0.28125 C 2.296875 -0.28125 2.28125 -0.28125 2.25 -0.28125 C 2.15625 -0.296875 2.125 -0.296875 2.125 -0.359375 C 2.125 -0.390625 2.125 -0.40625 2.171875 -0.578125 Z M 3.40625 -5.46875 "/>
</g>
<g id="glyph-1-0">
<path d="M 2.140625 -3.78125 C 2.140625 -3.953125 2.109375 -3.953125 1.9375 -3.953125 C 1.546875 -3.578125 0.9375 -3.578125 0.71875 -3.578125 L 0.71875 -3.34375 C 0.875 -3.34375 1.265625 -3.34375 1.625 -3.515625 L 1.625 -0.5 C 1.625 -0.3125 1.625 -0.234375 1.015625 -0.234375 L 0.75 -0.234375 L 0.75 0 C 1.078125 -0.03125 1.546875 -0.03125 1.875 -0.03125 C 2.21875 -0.03125 2.671875 -0.03125 3 0 L 3 -0.234375 L 2.75 -0.234375 C 2.140625 -0.234375 2.140625 -0.3125 2.140625 -0.5 Z M 2.140625 -3.78125 "/>
</g>
<g id="glyph-1-1">
<path d="M 3.203125 -1.109375 L 2.984375 -1.109375 C 2.96875 -1.03125 2.90625 -0.640625 2.828125 -0.578125 C 2.78125 -0.53125 2.296875 -0.53125 2.21875 -0.53125 L 1.09375 -0.53125 L 1.859375 -1.15625 C 2.0625 -1.3125 2.59375 -1.703125 2.78125 -1.875 C 2.953125 -2.046875 3.203125 -2.359375 3.203125 -2.78125 C 3.203125 -3.53125 2.53125 -3.953125 1.734375 -3.953125 C 0.96875 -3.953125 0.421875 -3.453125 0.421875 -2.890625 C 0.421875 -2.59375 0.6875 -2.546875 0.75 -2.546875 C 0.90625 -2.546875 1.078125 -2.65625 1.078125 -2.875 C 1.078125 -3 1 -3.203125 0.734375 -3.203125 C 0.875 -3.5 1.234375 -3.734375 1.640625 -3.734375 C 2.265625 -3.734375 2.59375 -3.265625 2.59375 -2.78125 C 2.59375 -2.359375 2.328125 -1.921875 1.90625 -1.546875 L 0.5 -0.25 C 0.4375 -0.1875 0.421875 -0.1875 0.421875 0 L 3.015625 0 Z M 3.203125 -1.109375 "/>
</g>
<g id="glyph-1-2">
<path d="M 1.75 -1.96875 C 2.25 -1.96875 2.59375 -1.640625 2.59375 -1.03125 C 2.59375 -0.375 2.203125 -0.09375 1.765625 -0.09375 C 1.609375 -0.09375 1 -0.125 0.71875 -0.46875 C 0.953125 -0.5 1.046875 -0.65625 1.046875 -0.8125 C 1.046875 -1.015625 0.90625 -1.15625 0.71875 -1.15625 C 0.546875 -1.15625 0.375 -1.046875 0.375 -0.796875 C 0.375 -0.203125 1.03125 0.125 1.78125 0.125 C 2.671875 0.125 3.25 -0.4375 3.25 -1.03125 C 3.25 -1.46875 2.921875 -1.921875 2.21875 -2.09375 C 2.6875 -2.25 3.0625 -2.640625 3.0625 -3.125 C 3.0625 -3.609375 2.5 -3.953125 1.796875 -3.953125 C 1.09375 -3.953125 0.5625 -3.640625 0.5625 -3.15625 C 0.5625 -2.890625 0.765625 -2.828125 0.875 -2.828125 C 1.03125 -2.828125 1.203125 -2.921875 1.203125 -3.140625 C 1.203125 -3.328125 1.0625 -3.421875 0.90625 -3.453125 C 1.1875 -3.765625 1.71875 -3.765625 1.78125 -3.765625 C 2.078125 -3.765625 2.46875 -3.625 2.46875 -3.125 C 2.46875 -2.796875 2.28125 -2.21875 1.6875 -2.1875 C 1.578125 -2.1875 1.421875 -2.171875 1.359375 -2.171875 C 1.296875 -2.171875 1.234375 -2.15625 1.234375 -2.078125 C 1.234375 -1.96875 1.296875 -1.96875 1.40625 -1.96875 Z M 1.75 -1.96875 "/>
</g>
<g id="glyph-2-0">
<path d="M 1.875 -2.796875 C 1.90625 -2.890625 1.921875 -2.953125 1.921875 -2.984375 C 1.921875 -3.171875 1.75 -3.328125 1.5625 -3.328125 C 1.328125 -3.328125 1.25 -3.125 1.21875 -3.03125 L 0.390625 -0.484375 C 0.375 -0.453125 0.359375 -0.40625 0.359375 -0.375 C 0.359375 -0.28125 0.59375 -0.234375 0.609375 -0.234375 C 0.65625 -0.234375 0.6875 -0.28125 0.703125 -0.328125 Z M 1.875 -2.796875 "/>
</g>
<g id="glyph-3-0">
<path d="M 3.578125 -2.21875 C 3.578125 -2.96875 3.484375 -3.53125 3.171875 -4.015625 C 2.953125 -4.328125 2.53125 -4.609375 1.96875 -4.609375 C 0.359375 -4.609375 0.359375 -2.71875 0.359375 -2.21875 C 0.359375 -1.71875 0.359375 0.140625 1.96875 0.140625 C 3.578125 0.140625 3.578125 -1.71875 3.578125 -2.21875 Z M 1.96875 -0.0625 C 1.65625 -0.0625 1.234375 -0.25 1.09375 -0.8125 C 0.984375 -1.21875 0.984375 -1.796875 0.984375 -2.296875 C 0.984375 -2.8125 0.984375 -3.34375 1.09375 -3.71875 C 1.234375 -4.265625 1.6875 -4.40625 1.96875 -4.40625 C 2.34375 -4.40625 2.703125 -4.1875 2.828125 -3.78125 C 2.9375 -3.40625 2.953125 -2.90625 2.953125 -2.296875 C 2.953125 -1.796875 2.953125 -1.28125 2.859375 -0.84375 C 2.71875 -0.203125 2.25 -0.0625 1.96875 -0.0625 Z M 1.96875 -0.0625 "/>
</g>
<g id="glyph-3-1">
<path d="M 3.5 -1.265625 L 3.265625 -1.265625 C 3.25 -1.109375 3.171875 -0.703125 3.09375 -0.625 C 3.03125 -0.59375 2.5 -0.59375 2.40625 -0.59375 L 1.125 -0.59375 C 1.859375 -1.234375 2.09375 -1.421875 2.515625 -1.75 C 3.03125 -2.171875 3.5 -2.59375 3.5 -3.25 C 3.5 -4.09375 2.765625 -4.609375 1.875 -4.609375 C 1.015625 -4.609375 0.4375 -4 0.4375 -3.359375 C 0.4375 -3.015625 0.734375 -2.96875 0.8125 -2.96875 C 0.96875 -2.96875 1.171875 -3.09375 1.171875 -3.34375 C 1.171875 -3.46875 1.125 -3.71875 0.765625 -3.71875 C 0.984375 -4.203125 1.453125 -4.359375 1.78125 -4.359375 C 2.46875 -4.359375 2.828125 -3.8125 2.828125 -3.25 C 2.828125 -2.65625 2.40625 -2.171875 2.171875 -1.921875 L 0.5 -0.265625 C 0.4375 -0.203125 0.4375 -0.1875 0.4375 0 L 3.296875 0 Z M 3.5 -1.265625 "/>
</g>
<g id="glyph-3-2">
<path d="M 1.890625 -2.3125 C 2.4375 -2.3125 2.828125 -1.9375 2.828125 -1.203125 C 2.828125 -0.34375 2.328125 -0.078125 1.921875 -0.078125 C 1.640625 -0.078125 1.03125 -0.15625 0.75 -0.5625 C 1.0625 -0.578125 1.140625 -0.8125 1.140625 -0.953125 C 1.140625 -1.171875 0.984375 -1.34375 0.765625 -1.34375 C 0.5625 -1.34375 0.375 -1.21875 0.375 -0.9375 C 0.375 -0.28125 1.09375 0.140625 1.9375 0.140625 C 2.90625 0.140625 3.5625 -0.5 3.5625 -1.203125 C 3.5625 -1.734375 3.125 -2.28125 2.359375 -2.4375 C 3.09375 -2.703125 3.34375 -3.21875 3.34375 -3.65625 C 3.34375 -4.203125 2.71875 -4.609375 1.953125 -4.609375 C 1.171875 -4.609375 0.59375 -4.234375 0.59375 -3.671875 C 0.59375 -3.4375 0.75 -3.3125 0.953125 -3.3125 C 1.171875 -3.3125 1.296875 -3.46875 1.296875 -3.65625 C 1.296875 -3.859375 1.171875 -4.015625 0.953125 -4.03125 C 1.1875 -4.328125 1.671875 -4.40625 1.921875 -4.40625 C 2.234375 -4.40625 2.671875 -4.25 2.671875 -3.65625 C 2.671875 -3.359375 2.578125 -3.03125 2.40625 -2.828125 C 2.171875 -2.5625 1.984375 -2.546875 1.625 -2.53125 C 1.453125 -2.515625 1.4375 -2.515625 1.40625 -2.5 C 1.390625 -2.5 1.34375 -2.484375 1.34375 -2.421875 C 1.34375 -2.3125 1.40625 -2.3125 1.515625 -2.3125 Z M 1.890625 -2.3125 "/>
</g>
<g id="glyph-3-3">
<path d="M 1.078125 -3.875 C 1.421875 -3.78125 1.640625 -3.78125 1.75 -3.78125 C 2.65625 -3.78125 3.203125 -4.40625 3.203125 -4.515625 C 3.203125 -4.578125 3.15625 -4.609375 3.125 -4.609375 C 3.109375 -4.609375 3.09375 -4.609375 3.0625 -4.578125 C 2.90625 -4.515625 2.53125 -4.390625 2.015625 -4.390625 C 1.828125 -4.390625 1.453125 -4.390625 1 -4.578125 C 0.9375 -4.609375 0.921875 -4.609375 0.921875 -4.609375 C 0.828125 -4.609375 0.828125 -4.53125 0.828125 -4.421875 L 0.828125 -2.375 C 0.828125 -2.25 0.828125 -2.171875 0.9375 -2.171875 C 1 -2.171875 1 -2.1875 1.078125 -2.265625 C 1.375 -2.65625 1.796875 -2.703125 2.046875 -2.703125 C 2.453125 -2.703125 2.640625 -2.375 2.671875 -2.3125 C 2.796875 -2.09375 2.84375 -1.828125 2.84375 -1.421875 C 2.84375 -1.21875 2.84375 -0.8125 2.640625 -0.5 C 2.46875 -0.25 2.171875 -0.078125 1.828125 -0.078125 C 1.375 -0.078125 0.90625 -0.328125 0.734375 -0.796875 C 1 -0.765625 1.125 -0.9375 1.125 -1.125 C 1.125 -1.421875 0.875 -1.484375 0.78125 -1.484375 C 0.765625 -1.484375 0.4375 -1.484375 0.4375 -1.109375 C 0.4375 -0.484375 1 0.140625 1.84375 0.140625 C 2.71875 0.140625 3.5 -0.515625 3.5 -1.390625 C 3.5 -2.171875 2.90625 -2.90625 2.046875 -2.90625 C 1.734375 -2.90625 1.375 -2.828125 1.078125 -2.5625 Z M 1.078125 -3.875 "/>
</g>
<g id="glyph-3-4">
<path d="M 2.90625 -2.0625 C 2.90625 -0.34375 2.046875 -0.078125 1.625 -0.078125 C 1.484375 -0.078125 1.109375 -0.09375 0.921875 -0.3125 C 1.203125 -0.34375 1.234375 -0.578125 1.234375 -0.640625 C 1.234375 -0.8125 1.109375 -0.96875 0.90625 -0.96875 C 0.6875 -0.96875 0.5625 -0.828125 0.5625 -0.625 C 0.5625 -0.15625 0.96875 0.140625 1.640625 0.140625 C 2.625 0.140625 3.5625 -0.796875 3.5625 -2.28125 C 3.5625 -4 2.796875 -4.609375 1.984375 -4.609375 C 1.765625 -4.609375 1.28125 -4.578125 0.890625 -4.1875 C 0.65625 -3.953125 0.375 -3.6875 0.375 -3.0625 C 0.375 -2.171875 1.078125 -1.53125 1.890625 -1.53125 C 2.4375 -1.53125 2.734375 -1.890625 2.90625 -2.203125 Z M 1.921875 -1.71875 C 1.65625 -1.71875 1.390625 -1.8125 1.203125 -2.125 C 1.046875 -2.390625 1.046875 -2.671875 1.046875 -3.0625 C 1.046875 -3.46875 1.046875 -3.734375 1.234375 -4.015625 C 1.40625 -4.265625 1.640625 -4.40625 2 -4.40625 C 2.359375 -4.40625 2.5625 -4.1875 2.671875 -4 C 2.859375 -3.71875 2.875 -3.21875 2.875 -2.984375 C 2.875 -2.078125 2.359375 -1.71875 1.921875 -1.71875 Z M 1.921875 -1.71875 "/>
</g>
<g id="glyph-3-5">
<path d="M 3.671875 -1.140625 L 3.671875 -1.390625 L 2.90625 -1.390625 L 2.90625 -4.484375 C 2.90625 -4.625 2.90625 -4.671875 2.75 -4.671875 C 2.65625 -4.671875 2.640625 -4.671875 2.5625 -4.578125 L 0.265625 -1.390625 L 0.265625 -1.140625 L 2.3125 -1.140625 L 2.3125 -0.5625 C 2.3125 -0.328125 2.3125 -0.25 1.75 -0.25 L 1.5625 -0.25 L 1.5625 0 C 1.90625 -0.015625 2.359375 -0.03125 2.609375 -0.03125 C 2.859375 -0.03125 3.296875 -0.015625 3.65625 0 L 3.65625 -0.25 L 3.46875 -0.25 C 2.90625 -0.25 2.90625 -0.328125 2.90625 -0.5625 L 2.90625 -1.140625 Z M 2.359375 -3.921875 L 2.359375 -1.390625 L 0.53125 -1.390625 Z M 2.359375 -3.921875 "/>
</g>
<g id="glyph-3-6">
<path d="M 1.046875 -2.265625 C 1.046875 -2.84375 1.09375 -3.34375 1.359375 -3.78125 C 1.59375 -4.15625 1.96875 -4.40625 2.40625 -4.40625 C 2.609375 -4.40625 2.890625 -4.34375 3.03125 -4.15625 C 2.859375 -4.15625 2.71875 -4.03125 2.71875 -3.828125 C 2.71875 -3.65625 2.828125 -3.5 3.03125 -3.5 C 3.25 -3.5 3.375 -3.640625 3.375 -3.84375 C 3.375 -4.25 3.078125 -4.609375 2.390625 -4.609375 C 1.390625 -4.609375 0.375 -3.6875 0.375 -2.203125 C 0.375 -0.40625 1.21875 0.140625 1.984375 0.140625 C 2.828125 0.140625 3.5625 -0.5 3.5625 -1.421875 C 3.5625 -2.296875 2.859375 -2.953125 2.046875 -2.953125 C 1.5 -2.953125 1.1875 -2.578125 1.046875 -2.265625 Z M 1.984375 -0.078125 C 1.640625 -0.078125 1.359375 -0.28125 1.21875 -0.59375 C 1.109375 -0.796875 1.0625 -1.140625 1.0625 -1.5625 C 1.0625 -2.234375 1.46875 -2.75 2.015625 -2.75 C 2.34375 -2.75 2.546875 -2.625 2.71875 -2.375 C 2.890625 -2.109375 2.90625 -1.8125 2.90625 -1.421875 C 2.90625 -1.015625 2.90625 -0.734375 2.71875 -0.453125 C 2.546875 -0.21875 2.328125 -0.078125 1.984375 -0.078125 Z M 1.984375 -0.078125 "/>
</g>
<g id="glyph-3-7">
<path d="M 2.46875 -2.5 C 3 -2.765625 3.34375 -3.09375 3.34375 -3.578125 C 3.34375 -4.25 2.65625 -4.609375 1.984375 -4.609375 C 1.21875 -4.609375 0.59375 -4.109375 0.59375 -3.453125 C 0.59375 -3.125 0.75 -2.890625 0.875 -2.75 C 0.984375 -2.609375 1.046875 -2.578125 1.453125 -2.328125 C 1.0625 -2.171875 0.375 -1.796875 0.375 -1.0625 C 0.375 -0.296875 1.171875 0.140625 1.96875 0.140625 C 2.84375 0.140625 3.5625 -0.421875 3.5625 -1.171875 C 3.5625 -1.625 3.296875 -2.015625 2.890625 -2.25 C 2.796875 -2.3125 2.5625 -2.453125 2.46875 -2.5 Z M 1.328125 -3.15625 C 1.15625 -3.265625 0.953125 -3.453125 0.953125 -3.71875 C 0.953125 -4.15625 1.46875 -4.40625 1.96875 -4.40625 C 2.5 -4.40625 2.984375 -4.0625 2.984375 -3.578125 C 2.984375 -2.953125 2.265625 -2.640625 2.25 -2.640625 C 2.234375 -2.640625 2.21875 -2.65625 2.171875 -2.671875 Z M 1.671875 -2.203125 L 2.625 -1.65625 C 2.796875 -1.546875 3.15625 -1.34375 3.15625 -0.921875 C 3.15625 -0.40625 2.578125 -0.078125 1.984375 -0.078125 C 1.34375 -0.078125 0.796875 -0.5 0.796875 -1.0625 C 0.796875 -1.578125 1.171875 -1.96875 1.671875 -2.203125 Z M 1.671875 -2.203125 "/>
</g>
<g id="glyph-4-0">
<path d="M 1.578125 -0.390625 C 1.578125 -0.640625 1.359375 -0.796875 1.171875 -0.796875 C 0.953125 -0.796875 0.78125 -0.609375 0.78125 -0.40625 C 0.78125 -0.15625 0.984375 0 1.171875 0 C 1.40625 0 1.578125 -0.1875 1.578125 -0.390625 Z M 1.578125 -0.390625 "/>
</g>
</g>
<clipPath id="clip-0">
<path clip-rule="nonzero" d="M 0.320312 59 L 29 59 L 29 91 L 0.320312 91 Z M 0.320312 59 "/>
</clipPath>
<clipPath id="clip-1">
<path clip-rule="nonzero" d="M 141 0 L 170.554688 0 L 170.554688 22 L 141 22 Z M 141 0 "/>
</clipPath>
<clipPath id="clip-2">
<path clip-rule="nonzero" d="M 141 48 L 170.554688 48 L 170.554688 74 L 141 74 Z M 141 48 "/>
</clipPath>
<clipPath id="clip-3">
<path clip-rule="nonzero" d="M 141 100 L 170.554688 100 L 170.554688 126 L 141 126 Z M 141 100 "/>
</clipPath>
</defs>
<path fill-rule="nonzero" fill="rgb(96.076965%, 93.725586%, 89.019775%)" fill-opacity="1" d="M 17.671875 68.882812 L 5.601562 68.882812 C 4.507812 68.882812 3.617188 69.773438 3.617188 70.867188 L 3.617188 78.953125 C 3.617188 80.050781 4.507812 80.9375 5.601562 80.9375 L 17.671875 80.9375 C 18.765625 80.9375 19.65625 80.050781 19.65625 78.953125 L 19.65625 70.867188 C 19.65625 69.773438 18.765625 68.882812 17.671875 68.882812 Z M 17.671875 68.882812 "/>
<g clip-path="url(#clip-0)">
<path fill="none" stroke-width="0.64757" stroke-linecap="butt" stroke-linejoin="miter" stroke="rgb(12.156677%, 10.978699%, 9.411621%)" stroke-opacity="1" stroke-miterlimit="10" d="M 6.06031 6.053651 L -6.059687 6.053651 C -7.157939 6.053651 -8.05223 5.15936 -8.05223 4.061108 L -8.05223 -4.058113 C -8.05223 -5.160287 -7.157939 -6.050656 -6.059687 -6.050656 L 6.06031 -6.050656 C 7.158562 -6.050656 8.052853 -5.160287 8.052853 -4.058113 L 8.052853 4.061108 C 8.052853 5.15936 7.158562 6.053651 6.06031 6.053651 Z M 6.06031 6.053651 " transform="matrix(0.995901, 0, 0, -0.995901, 11.636409, 74.911648)"/>
</g>
<g fill="rgb(0%, 0%, 0%)" fill-opacity="1">
<use xlink:href="#glyph-0-0" x="8.578993" y="77.963087"/>
</g>
<path fill-rule="nonzero" fill="rgb(96.076965%, 93.725586%, 89.019775%)" fill-opacity="1" stroke-width="0.64757" stroke-linecap="butt" stroke-linejoin="miter" stroke="rgb(12.156677%, 10.978699%, 9.411621%)" stroke-opacity="1" stroke-miterlimit="10" d="M 76.132716 58.993325 L 57.097654 58.993325 C 55.999402 58.993325 55.105111 58.099034 55.105111 57.000782 L 55.105111 47.88529 C 55.105111 46.783115 55.999402 45.892746 57.097654 45.892746 L 76.132716 45.892746 C 77.230969 45.892746 78.12526 46.783115 78.12526 47.88529 L 78.12526 57.000782 C 78.12526 58.099034 77.230969 58.993325 76.132716 58.993325 Z M 76.132716 58.993325 " transform="matrix(0.995901, 0, 0, -0.995901, 11.636409, 74.911648)"/>
<g fill="rgb(0%, 0%, 0%)" fill-opacity="1">
<use xlink:href="#glyph-0-1" x="71.477092" y="25.241102"/>
</g>
<g fill="rgb(0%, 0%, 0%)" fill-opacity="1">
<use xlink:href="#glyph-1-0" x="80.343595" y="26.233019"/>
</g>
<path fill-rule="nonzero" fill="rgb(96.076965%, 93.725586%, 89.019775%)" fill-opacity="1" stroke-width="0.64757" stroke-linecap="butt" stroke-linejoin="miter" stroke="rgb(12.156677%, 10.978699%, 9.411621%)" stroke-opacity="1" stroke-miterlimit="10" d="M 76.132716 6.551787 L 57.097654 6.551787 C 55.999402 6.551787 55.105111 5.657496 55.105111 4.559244 L 55.105111 -4.556249 C 55.105111 -5.658423 55.999402 -6.548792 57.097654 -6.548792 L 76.132716 -6.548792 C 77.230969 -6.548792 78.12526 -5.658423 78.12526 -4.556249 L 78.12526 4.559244 C 78.12526 5.657496 77.230969 6.551787 76.132716 6.551787 Z M 76.132716 6.551787 " transform="matrix(0.995901, 0, 0, -0.995901, 11.636409, 74.911648)"/>
<g fill="rgb(0%, 0%, 0%)" fill-opacity="1">
<use xlink:href="#glyph-0-1" x="71.477092" y="77.467129"/>
</g>
<g fill="rgb(0%, 0%, 0%)" fill-opacity="1">
<use xlink:href="#glyph-1-1" x="80.343595" y="78.459046"/>
</g>
<path fill-rule="nonzero" fill="rgb(96.076965%, 93.725586%, 89.019775%)" fill-opacity="1" stroke-width="0.64757" stroke-linecap="butt" stroke-linejoin="miter" stroke="rgb(12.156677%, 10.978699%, 9.411621%)" stroke-opacity="1" stroke-miterlimit="10" d="M 76.132716 -45.889751 L 57.097654 -45.889751 C 55.999402 -45.889751 55.105111 -46.784042 55.105111 -47.882294 L 55.105111 -56.997787 C 55.105111 -58.099961 55.999402 -58.99033 57.097654 -58.99033 L 76.132716 -58.99033 C 77.230969 -58.99033 78.12526 -58.099961 78.12526 -56.997787 L 78.12526 -47.882294 C 78.12526 -46.784042 77.230969 -45.889751 76.132716 -45.889751 Z M 76.132716 -45.889751 " transform="matrix(0.995901, 0, 0, -0.995901, 11.636409, 74.911648)"/>
<g fill="rgb(0%, 0%, 0%)" fill-opacity="1">
<use xlink:href="#glyph-0-1" x="71.477092" y="129.693156"/>
</g>
<g fill="rgb(0%, 0%, 0%)" fill-opacity="1">
<use xlink:href="#glyph-1-2" x="80.343595" y="130.685073"/>
</g>
<path fill-rule="nonzero" fill="rgb(98.446655%, 96.705627%, 96.705627%)" fill-opacity="1" d="M 165.324219 3.535156 L 151.546875 3.535156 C 150.453125 3.535156 149.5625 4.421875 149.5625 5.519531 L 149.5625 11.621094 C 149.5625 12.714844 150.453125 13.605469 151.546875 13.605469 L 165.324219 13.605469 C 166.417969 13.605469 167.308594 12.714844 167.308594 11.621094 L 167.308594 5.519531 C 167.308594 4.421875 166.417969 3.535156 165.324219 3.535156 Z M 165.324219 3.535156 "/>
<g clip-path="url(#clip-1)">
<path fill="none" stroke-width="0.54794" stroke-linecap="butt" stroke-linejoin="miter" stroke="rgb(61.175537%, 17.64679%, 17.64679%)" stroke-opacity="1" stroke-miterlimit="10" d="M 154.320422 71.670292 L 140.486368 71.670292 C 139.388115 71.670292 138.493824 70.779924 138.493824 69.677749 L 138.493824 63.551071 C 138.493824 62.452819 139.388115 61.558528 140.486368 61.558528 L 154.320422 61.558528 C 155.418674 61.558528 156.312965 62.452819 156.312965 63.551071 L 156.312965 69.677749 C 156.312965 70.779924 155.418674 71.670292 154.320422 71.670292 Z M 154.320422 71.670292 " transform="matrix(0.995901, 0, 0, -0.995901, 11.636409, 74.911648)"/>
</g>
<g fill="rgb(61.175537%, 17.64679%, 17.64679%)" fill-opacity="1">
<use xlink:href="#glyph-0-2" x="154.521264" y="11.622161"/>
</g>
<g fill="rgb(54.116821%, 49.804688%, 44.706726%)" fill-opacity="1">
<use xlink:href="#glyph-0-2" x="153.184766" y="40.350907"/>
</g>
<g fill="rgb(54.116821%, 49.804688%, 44.706726%)" fill-opacity="1">
<use xlink:href="#glyph-2-0" x="161.007565" y="36.557522"/>
</g>
<path fill-rule="nonzero" fill="rgb(98.446655%, 96.705627%, 96.705627%)" fill-opacity="1" d="M 165.324219 55.761719 L 151.546875 55.761719 C 150.453125 55.761719 149.5625 56.648438 149.5625 57.746094 L 149.5625 63.847656 C 149.5625 64.941406 150.453125 65.832031 151.546875 65.832031 L 165.324219 65.832031 C 166.417969 65.832031 167.308594 64.941406 167.308594 63.847656 L 167.308594 57.746094 C 167.308594 56.648438 166.417969 55.761719 165.324219 55.761719 Z M 165.324219 55.761719 "/>
<g clip-path="url(#clip-2)">
<path fill="none" stroke-width="0.54794" stroke-linecap="butt" stroke-linejoin="miter" stroke="rgb(61.175537%, 17.64679%, 17.64679%)" stroke-opacity="1" stroke-miterlimit="10" d="M 154.320422 19.228754 L 140.486368 19.228754 C 139.388115 19.228754 138.493824 18.338386 138.493824 17.236211 L 138.493824 11.109533 C 138.493824 10.011281 139.388115 9.11699 140.486368 9.11699 L 154.320422 9.11699 C 155.418674 9.11699 156.312965 10.011281 156.312965 11.109533 L 156.312965 17.236211 C 156.312965 18.338386 155.418674 19.228754 154.320422 19.228754 Z M 154.320422 19.228754 " transform="matrix(0.995901, 0, 0, -0.995901, 11.636409, 74.911648)"/>
</g>
<g fill="rgb(61.175537%, 17.64679%, 17.64679%)" fill-opacity="1">
<use xlink:href="#glyph-0-2" x="154.521264" y="63.848187"/>
</g>
<g fill="rgb(54.116821%, 49.804688%, 44.706726%)" fill-opacity="1">
<use xlink:href="#glyph-0-2" x="153.184766" y="92.57793"/>
</g>
<g fill="rgb(54.116821%, 49.804688%, 44.706726%)" fill-opacity="1">
<use xlink:href="#glyph-2-0" x="161.007565" y="88.784544"/>
</g>
<path fill-rule="nonzero" fill="rgb(98.446655%, 96.705627%, 96.705627%)" fill-opacity="1" d="M 165.324219 107.988281 L 151.546875 107.988281 C 150.453125 107.988281 149.5625 108.875 149.5625 109.972656 L 149.5625 116.074219 C 149.5625 117.171875 150.453125 118.058594 151.546875 118.058594 L 165.324219 118.058594 C 166.417969 118.058594 167.308594 117.171875 167.308594 116.074219 L 167.308594 109.972656 C 167.308594 108.875 166.417969 107.988281 165.324219 107.988281 Z M 165.324219 107.988281 "/>
<g clip-path="url(#clip-3)">
<path fill="none" stroke-width="0.54794" stroke-linecap="butt" stroke-linejoin="miter" stroke="rgb(61.175537%, 17.64679%, 17.64679%)" stroke-opacity="1" stroke-miterlimit="10" d="M 154.320422 -33.212784 L 140.486368 -33.212784 C 139.388115 -33.212784 138.493824 -34.103153 138.493824 -35.205327 L 138.493824 -41.332005 C 138.493824 -42.434179 139.388115 -43.324548 140.486368 -43.324548 L 154.320422 -43.324548 C 155.418674 -43.324548 156.312965 -42.434179 156.312965 -41.332005 L 156.312965 -35.205327 C 156.312965 -34.103153 155.418674 -33.212784 154.320422 -33.212784 Z M 154.320422 -33.212784 " transform="matrix(0.995901, 0, 0, -0.995901, 11.636409, 74.911648)"/>
</g>
<g fill="rgb(61.175537%, 17.64679%, 17.64679%)" fill-opacity="1">
<use xlink:href="#glyph-0-2" x="154.521264" y="116.074214"/>
</g>
<g fill="rgb(54.116821%, 49.804688%, 44.706726%)" fill-opacity="1">
<use xlink:href="#glyph-0-2" x="153.184766" y="144.803956"/>
</g>
<g fill="rgb(54.116821%, 49.804688%, 44.706726%)" fill-opacity="1">
<use xlink:href="#glyph-2-0" x="161.007565" y="141.010571"/>
</g>
<path fill="none" stroke-width="0.99628" stroke-linecap="butt" stroke-linejoin="miter" stroke="rgb(61.175537%, 17.64679%, 17.64679%)" stroke-opacity="1" stroke-miterlimit="10" d="M 8.095998 6.375282 L 57.88212 45.567193 " transform="matrix(0.995901, 0, 0, -0.995901, 11.636409, 74.911648)"/>
<g fill="rgb(61.175537%, 17.64679%, 17.64679%)" fill-opacity="1">
<use xlink:href="#glyph-3-0" x="34.883718" y="43.503929"/>
</g>
<g fill="rgb(61.175537%, 17.64679%, 17.64679%)" fill-opacity="1">
<use xlink:href="#glyph-4-0" x="38.838439" y="43.503929"/>
</g>
<g fill="rgb(61.175537%, 17.64679%, 17.64679%)" fill-opacity="1">
<use xlink:href="#glyph-3-1" x="41.19474" y="43.503929"/>
</g>
<path fill="none" stroke-width="0.99628" stroke-linecap="butt" stroke-linejoin="miter" stroke="rgb(61.175537%, 17.64679%, 17.64679%)" stroke-opacity="1" stroke-miterlimit="10" d="M 8.374484 0.0014977 L 54.78348 0.0014977 " transform="matrix(0.995901, 0, 0, -0.995901, 11.636409, 74.911648)"/>
<g fill="rgb(61.175537%, 17.64679%, 17.64679%)" fill-opacity="1">
<use xlink:href="#glyph-3-0" x="40.262577" y="71.109299"/>
</g>
<g fill="rgb(61.175537%, 17.64679%, 17.64679%)" fill-opacity="1">
<use xlink:href="#glyph-4-0" x="44.218295" y="71.109299"/>
</g>
<g fill="rgb(61.175537%, 17.64679%, 17.64679%)" fill-opacity="1">
<use xlink:href="#glyph-3-2" x="46.574596" y="71.109299"/>
</g>
<path fill="none" stroke-width="0.99628" stroke-linecap="butt" stroke-linejoin="miter" stroke="rgb(61.175537%, 17.64679%, 17.64679%)" stroke-opacity="1" stroke-miterlimit="10" d="M 8.095998 -6.376209 L 57.88212 -45.56812 " transform="matrix(0.995901, 0, 0, -0.995901, 11.636409, 74.911648)"/>
<g fill="rgb(61.175537%, 17.64679%, 17.64679%)" fill-opacity="1">
<use xlink:href="#glyph-3-0" x="34.883718" y="110.79594"/>
</g>
<g fill="rgb(61.175537%, 17.64679%, 17.64679%)" fill-opacity="1">
<use xlink:href="#glyph-4-0" x="38.838439" y="110.79594"/>
</g>
<g fill="rgb(61.175537%, 17.64679%, 17.64679%)" fill-opacity="1">
<use xlink:href="#glyph-3-3" x="41.19474" y="110.79594"/>
</g>
<path fill="none" stroke-width="0.99628" stroke-linecap="butt" stroke-linejoin="miter" stroke="rgb(61.175537%, 17.64679%, 17.64679%)" stroke-opacity="1" stroke-miterlimit="10" d="M 78.446891 54.514025 L 138.219261 65.006255 " transform="matrix(0.995901, 0, 0, -0.995901, 11.636409, 74.911648)"/>
<g fill="rgb(61.175537%, 17.64679%, 17.64679%)" fill-opacity="1">
<use xlink:href="#glyph-3-0" x="117.175985" y="10.758715"/>
</g>
<g fill="rgb(61.175537%, 17.64679%, 17.64679%)" fill-opacity="1">
<use xlink:href="#glyph-4-0" x="121.130707" y="10.758715"/>
</g>
<g fill="rgb(61.175537%, 17.64679%, 17.64679%)" fill-opacity="1">
<use xlink:href="#glyph-3-0" x="123.487008" y="10.758715"/>
<use xlink:href="#glyph-3-3" x="127.442306" y="10.758715"/>
</g>
<path fill="none" stroke-width="0.64757" stroke-linecap="butt" stroke-linejoin="miter" stroke="rgb(54.116821%, 49.804688%, 44.706726%)" stroke-opacity="1" stroke-miterlimit="10" d="M 78.446891 50.368124 L 138.944892 39.750379 " transform="matrix(0.995901, 0, 0, -0.995901, 11.636409, 74.911648)"/>
<g fill="rgb(54.116821%, 49.804688%, 44.706726%)" fill-opacity="1">
<use xlink:href="#glyph-3-0" x="117.595259" y="38.988515"/>
</g>
<g fill="rgb(54.116821%, 49.804688%, 44.706726%)" fill-opacity="1">
<use xlink:href="#glyph-4-0" x="121.549981" y="38.988515"/>
</g>
<g fill="rgb(54.116821%, 49.804688%, 44.706726%)" fill-opacity="1">
<use xlink:href="#glyph-3-4" x="123.906282" y="38.988515"/>
<use xlink:href="#glyph-3-3" x="127.86158" y="38.988515"/>
</g>
<path fill="none" stroke-width="0.99628" stroke-linecap="butt" stroke-linejoin="miter" stroke="rgb(61.175537%, 17.64679%, 17.64679%)" stroke-opacity="1" stroke-miterlimit="10" d="M 78.446891 2.072487 L 138.219261 12.564717 " transform="matrix(0.995901, 0, 0, -0.995901, 11.636409, 74.911648)"/>
<g fill="rgb(61.175537%, 17.64679%, 17.64679%)" fill-opacity="1">
<use xlink:href="#glyph-3-0" x="117.175985" y="62.984741"/>
</g>
<g fill="rgb(61.175537%, 17.64679%, 17.64679%)" fill-opacity="1">
<use xlink:href="#glyph-4-0" x="121.130707" y="62.984741"/>
</g>
<g fill="rgb(61.175537%, 17.64679%, 17.64679%)" fill-opacity="1">
<use xlink:href="#glyph-3-0" x="123.487008" y="62.984741"/>
<use xlink:href="#glyph-3-5" x="127.442306" y="62.984741"/>
</g>
<path fill="none" stroke-width="0.64757" stroke-linecap="butt" stroke-linejoin="miter" stroke="rgb(54.116821%, 49.804688%, 44.706726%)" stroke-opacity="1" stroke-miterlimit="10" d="M 78.446891 -2.073414 L 138.944892 -12.691159 " transform="matrix(0.995901, 0, 0, -0.995901, 11.636409, 74.911648)"/>
<g fill="rgb(54.116821%, 49.804688%, 44.706726%)" fill-opacity="1">
<use xlink:href="#glyph-3-0" x="117.595259" y="91.214542"/>
</g>
<g fill="rgb(54.116821%, 49.804688%, 44.706726%)" fill-opacity="1">
<use xlink:href="#glyph-4-0" x="121.549981" y="91.214542"/>
</g>
<g fill="rgb(54.116821%, 49.804688%, 44.706726%)" fill-opacity="1">
<use xlink:href="#glyph-3-4" x="123.906282" y="91.214542"/>
<use xlink:href="#glyph-3-6" x="127.86158" y="91.214542"/>
</g>
<path fill="none" stroke-width="0.99628" stroke-linecap="butt" stroke-linejoin="miter" stroke="rgb(61.175537%, 17.64679%, 17.64679%)" stroke-opacity="1" stroke-miterlimit="10" d="M 78.446891 -50.369051 L 138.219261 -39.880743 " transform="matrix(0.995901, 0, 0, -0.995901, 11.636409, 74.911648)"/>
<g fill="rgb(61.175537%, 17.64679%, 17.64679%)" fill-opacity="1">
<use xlink:href="#glyph-3-0" x="117.175985" y="115.210768"/>
</g>
<g fill="rgb(61.175537%, 17.64679%, 17.64679%)" fill-opacity="1">
<use xlink:href="#glyph-4-0" x="121.130707" y="115.210768"/>
</g>
<g fill="rgb(61.175537%, 17.64679%, 17.64679%)" fill-opacity="1">
<use xlink:href="#glyph-3-0" x="123.487008" y="115.210768"/>
<use xlink:href="#glyph-3-1" x="127.442306" y="115.210768"/>
</g>
<path fill="none" stroke-width="0.64757" stroke-linecap="butt" stroke-linejoin="miter" stroke="rgb(54.116821%, 49.804688%, 44.706726%)" stroke-opacity="1" stroke-miterlimit="10" d="M 78.446891 -54.514952 L 138.944892 -65.132697 " transform="matrix(0.995901, 0, 0, -0.995901, 11.636409, 74.911648)"/>
<g fill="rgb(54.116821%, 49.804688%, 44.706726%)" fill-opacity="1">
<use xlink:href="#glyph-3-0" x="117.595259" y="143.440568"/>
</g>
<g fill="rgb(54.116821%, 49.804688%, 44.706726%)" fill-opacity="1">
<use xlink:href="#glyph-4-0" x="121.549981" y="143.440568"/>
</g>
<g fill="rgb(54.116821%, 49.804688%, 44.706726%)" fill-opacity="1">
<use xlink:href="#glyph-3-4" x="123.906282" y="143.440568"/>
<use xlink:href="#glyph-3-7" x="127.86158" y="143.440568"/>
</g>
</svg>
